; NON-PLATED HOLES START AT T1
; THROUGH (PLATED) HOLES START AT T100
M48
INCH
T100C0.042000
T101C0.015748
T102C0.035000
T103C0.039370
T104C0.040278
T105C0.030000
%
T100
X008988Y007523
X008988Y005523
X008988Y006523
T101
X013990Y002516
X008988Y002523
X009997Y004533
X004485Y018022
X002494Y018022
X001490Y018022
T102
X010988Y004023
X013488Y013023
X013988Y004023
X013488Y008023
X013488Y011023
X010488Y013023
T103
X018488Y005991
X018988Y015023
X018988Y016991
X018488Y004023
T104
X004988Y001023
X003388Y020023
X016988Y020023
X009988Y001023
X018988Y020023
X011988Y020023
X013988Y001023
X016988Y001023
X015988Y020023
X017988Y001023
X002388Y020023
X013988Y020023
X006388Y020023
X005388Y020023
X011988Y001023
X007988Y001023
X018988Y001023
X008988Y001023
X012988Y020023
X001388Y020023
X005988Y001023
X007388Y020023
X017988Y020023
X008388Y020023
X015988Y001023
X006988Y001023
X010388Y020023
X009388Y020023
X010988Y001023
X014988Y001023
X014988Y020023
X004388Y020023
T105
X014988Y009023
X005988Y010523
X003988Y010523
X007988Y010523
X014988Y010023
X011988Y008021
X004988Y010523
X014988Y012022
X011988Y009023
X014988Y011023
X014988Y008023
X002988Y010523
X006988Y010523
X014988Y013022
T00
M30
