G04 MADE WITH FRITZING*
G04 WWW.FRITZING.ORG*
G04 DOUBLE SIDED*
G04 HOLES PLATED*
G04 CONTOUR ON CENTER OF CONTOUR VECTOR*
%ASAXBY*%
%FSLAX23Y23*%
%MOIN*%
%OFA0B0*%
%SFA1.0B1.0*%
%ADD10C,0.049370*%
%ADD11C,0.089370*%
%ADD12C,0.075278*%
%ADD13C,0.092000*%
%ADD14C,0.085000*%
%ADD15C,0.080000*%
%ADD16R,0.089370X0.089370*%
%ADD17R,0.092000X0.092000*%
%ADD18R,0.001000X0.001000*%
%LNMASK0*%
G90*
G70*
G54D10*
X899Y252D03*
X1399Y252D03*
X1000Y453D03*
X249Y1802D03*
X149Y1802D03*
X449Y1802D03*
G54D11*
X1849Y402D03*
X1849Y599D03*
X1899Y1502D03*
X1899Y1699D03*
G54D12*
X1499Y102D03*
X1599Y102D03*
X1699Y102D03*
X1799Y102D03*
X1899Y102D03*
X1039Y2002D03*
X939Y2002D03*
X839Y2002D03*
X739Y2002D03*
X639Y2002D03*
X539Y2002D03*
X439Y2002D03*
X339Y2002D03*
X239Y2002D03*
X139Y2002D03*
X1899Y2002D03*
X1799Y2002D03*
X1699Y2002D03*
X1599Y2002D03*
X1499Y2002D03*
X1399Y2002D03*
X1299Y2002D03*
X1199Y2002D03*
X599Y102D03*
X499Y102D03*
X699Y102D03*
X799Y102D03*
X899Y102D03*
X999Y102D03*
X1099Y102D03*
X1199Y102D03*
X1399Y102D03*
G54D13*
X899Y752D03*
X899Y652D03*
X899Y552D03*
G54D14*
X1099Y402D03*
X1399Y402D03*
X1349Y802D03*
X1349Y1102D03*
X1349Y1302D03*
X1049Y1302D03*
G54D15*
X1199Y902D03*
X1199Y802D03*
G54D16*
X1849Y402D03*
X1899Y1502D03*
G54D17*
X899Y752D03*
G54D18*
X1493Y1342D02*
X1505Y1342D01*
X1489Y1341D02*
X1510Y1341D01*
X1486Y1340D02*
X1513Y1340D01*
X1483Y1339D02*
X1515Y1339D01*
X1481Y1338D02*
X1517Y1338D01*
X1479Y1337D02*
X1519Y1337D01*
X1478Y1336D02*
X1520Y1336D01*
X1476Y1335D02*
X1522Y1335D01*
X1475Y1334D02*
X1523Y1334D01*
X1474Y1333D02*
X1525Y1333D01*
X1473Y1332D02*
X1526Y1332D01*
X1471Y1331D02*
X1527Y1331D01*
X1471Y1330D02*
X1528Y1330D01*
X1470Y1329D02*
X1529Y1329D01*
X1469Y1328D02*
X1529Y1328D01*
X1468Y1327D02*
X1530Y1327D01*
X1467Y1326D02*
X1531Y1326D01*
X1467Y1325D02*
X1532Y1325D01*
X1466Y1324D02*
X1532Y1324D01*
X1465Y1323D02*
X1533Y1323D01*
X1465Y1322D02*
X1534Y1322D01*
X1464Y1321D02*
X1534Y1321D01*
X1464Y1320D02*
X1535Y1320D01*
X1463Y1319D02*
X1535Y1319D01*
X1463Y1318D02*
X1536Y1318D01*
X1462Y1317D02*
X1536Y1317D01*
X1462Y1316D02*
X1536Y1316D01*
X1462Y1315D02*
X1537Y1315D01*
X1461Y1314D02*
X1537Y1314D01*
X1461Y1313D02*
X1537Y1313D01*
X1461Y1312D02*
X1537Y1312D01*
X1461Y1311D02*
X1538Y1311D01*
X1460Y1310D02*
X1538Y1310D01*
X1460Y1309D02*
X1538Y1309D01*
X1460Y1308D02*
X1538Y1308D01*
X1460Y1307D02*
X1538Y1307D01*
X1460Y1306D02*
X1538Y1306D01*
X1460Y1305D02*
X1538Y1305D01*
X1460Y1304D02*
X1539Y1304D01*
X1460Y1303D02*
X1539Y1303D01*
X1460Y1302D02*
X1539Y1302D01*
X1460Y1301D02*
X1538Y1301D01*
X1460Y1300D02*
X1538Y1300D01*
X1460Y1299D02*
X1538Y1299D01*
X1460Y1298D02*
X1538Y1298D01*
X1460Y1297D02*
X1538Y1297D01*
X1460Y1296D02*
X1538Y1296D01*
X1460Y1295D02*
X1538Y1295D01*
X1461Y1294D02*
X1538Y1294D01*
X1461Y1293D02*
X1537Y1293D01*
X1461Y1292D02*
X1537Y1292D01*
X1461Y1291D02*
X1537Y1291D01*
X1462Y1290D02*
X1537Y1290D01*
X1462Y1289D02*
X1536Y1289D01*
X1462Y1288D02*
X1536Y1288D01*
X1463Y1287D02*
X1535Y1287D01*
X1463Y1286D02*
X1535Y1286D01*
X1464Y1285D02*
X1534Y1285D01*
X1464Y1284D02*
X1534Y1284D01*
X1465Y1283D02*
X1533Y1283D01*
X1465Y1282D02*
X1533Y1282D01*
X1466Y1281D02*
X1532Y1281D01*
X1467Y1280D02*
X1531Y1280D01*
X1467Y1279D02*
X1531Y1279D01*
X1468Y1278D02*
X1530Y1278D01*
X1469Y1277D02*
X1529Y1277D01*
X1470Y1276D02*
X1528Y1276D01*
X1471Y1275D02*
X1527Y1275D01*
X1472Y1274D02*
X1527Y1274D01*
X1473Y1273D02*
X1525Y1273D01*
X1474Y1272D02*
X1524Y1272D01*
X1475Y1271D02*
X1523Y1271D01*
X1477Y1270D02*
X1522Y1270D01*
X1478Y1269D02*
X1520Y1269D01*
X1480Y1268D02*
X1518Y1268D01*
X1482Y1267D02*
X1517Y1267D01*
X1484Y1266D02*
X1515Y1266D01*
X1486Y1265D02*
X1512Y1265D01*
X1490Y1264D02*
X1509Y1264D01*
X1495Y1263D02*
X1503Y1263D01*
X1493Y1242D02*
X1505Y1242D01*
X1489Y1241D02*
X1510Y1241D01*
X1486Y1240D02*
X1513Y1240D01*
X1483Y1239D02*
X1515Y1239D01*
X1481Y1238D02*
X1517Y1238D01*
X1479Y1237D02*
X1519Y1237D01*
X1478Y1236D02*
X1520Y1236D01*
X1476Y1235D02*
X1522Y1235D01*
X1475Y1234D02*
X1523Y1234D01*
X1474Y1233D02*
X1525Y1233D01*
X1473Y1232D02*
X1526Y1232D01*
X1471Y1231D02*
X1527Y1231D01*
X1471Y1230D02*
X1528Y1230D01*
X1470Y1229D02*
X1529Y1229D01*
X1469Y1228D02*
X1529Y1228D01*
X1468Y1227D02*
X1530Y1227D01*
X1467Y1226D02*
X1531Y1226D01*
X1467Y1225D02*
X1532Y1225D01*
X1466Y1224D02*
X1532Y1224D01*
X1465Y1223D02*
X1533Y1223D01*
X1465Y1222D02*
X1534Y1222D01*
X1464Y1221D02*
X1534Y1221D01*
X1464Y1220D02*
X1535Y1220D01*
X1463Y1219D02*
X1535Y1219D01*
X1463Y1218D02*
X1536Y1218D01*
X1462Y1217D02*
X1536Y1217D01*
X1462Y1216D02*
X1536Y1216D01*
X1462Y1215D02*
X1537Y1215D01*
X1461Y1214D02*
X1537Y1214D01*
X1461Y1213D02*
X1537Y1213D01*
X1461Y1212D02*
X1537Y1212D01*
X1461Y1211D02*
X1538Y1211D01*
X1460Y1210D02*
X1538Y1210D01*
X1460Y1209D02*
X1538Y1209D01*
X1460Y1208D02*
X1538Y1208D01*
X1460Y1207D02*
X1538Y1207D01*
X1460Y1206D02*
X1538Y1206D01*
X1460Y1205D02*
X1538Y1205D01*
X1460Y1204D02*
X1539Y1204D01*
X1460Y1203D02*
X1539Y1203D01*
X1460Y1202D02*
X1539Y1202D01*
X1460Y1201D02*
X1538Y1201D01*
X1460Y1200D02*
X1538Y1200D01*
X1460Y1199D02*
X1538Y1199D01*
X1460Y1198D02*
X1538Y1198D01*
X1460Y1197D02*
X1538Y1197D01*
X1460Y1196D02*
X1538Y1196D01*
X1460Y1195D02*
X1538Y1195D01*
X1461Y1194D02*
X1538Y1194D01*
X1461Y1193D02*
X1537Y1193D01*
X1461Y1192D02*
X1537Y1192D01*
X1461Y1191D02*
X1537Y1191D01*
X1462Y1190D02*
X1537Y1190D01*
X1462Y1189D02*
X1536Y1189D01*
X1462Y1188D02*
X1536Y1188D01*
X1463Y1187D02*
X1535Y1187D01*
X1463Y1186D02*
X1535Y1186D01*
X1464Y1185D02*
X1534Y1185D01*
X1464Y1184D02*
X1534Y1184D01*
X1465Y1183D02*
X1533Y1183D01*
X1465Y1182D02*
X1533Y1182D01*
X1466Y1181D02*
X1532Y1181D01*
X1467Y1180D02*
X1531Y1180D01*
X1467Y1179D02*
X1531Y1179D01*
X1468Y1178D02*
X1530Y1178D01*
X1469Y1177D02*
X1529Y1177D01*
X1470Y1176D02*
X1528Y1176D01*
X1471Y1175D02*
X1527Y1175D01*
X1472Y1174D02*
X1527Y1174D01*
X1473Y1173D02*
X1525Y1173D01*
X1474Y1172D02*
X1524Y1172D01*
X1475Y1171D02*
X1523Y1171D01*
X1477Y1170D02*
X1522Y1170D01*
X1478Y1169D02*
X1520Y1169D01*
X1480Y1168D02*
X1518Y1168D01*
X1482Y1167D02*
X1517Y1167D01*
X1484Y1166D02*
X1515Y1166D01*
X1486Y1165D02*
X1512Y1165D01*
X1490Y1164D02*
X1509Y1164D01*
X1495Y1163D02*
X1503Y1163D01*
X1493Y1142D02*
X1505Y1142D01*
X1489Y1141D02*
X1510Y1141D01*
X1485Y1140D02*
X1513Y1140D01*
X1483Y1139D02*
X1515Y1139D01*
X1481Y1138D02*
X1517Y1138D01*
X1479Y1137D02*
X1519Y1137D01*
X1478Y1136D02*
X1521Y1136D01*
X1476Y1135D02*
X1522Y1135D01*
X1475Y1134D02*
X1523Y1134D01*
X1474Y1133D02*
X1525Y1133D01*
X1473Y1132D02*
X1526Y1132D01*
X1471Y1131D02*
X1527Y1131D01*
X1471Y1130D02*
X1528Y1130D01*
X1470Y1129D02*
X1529Y1129D01*
X1469Y1128D02*
X1529Y1128D01*
X1468Y1127D02*
X1530Y1127D01*
X1467Y1126D02*
X1531Y1126D01*
X1467Y1125D02*
X1532Y1125D01*
X1466Y1124D02*
X1532Y1124D01*
X1465Y1123D02*
X1533Y1123D01*
X1465Y1122D02*
X1534Y1122D01*
X1464Y1121D02*
X1534Y1121D01*
X1464Y1120D02*
X1535Y1120D01*
X1463Y1119D02*
X1535Y1119D01*
X1463Y1118D02*
X1536Y1118D01*
X1462Y1117D02*
X1536Y1117D01*
X1462Y1116D02*
X1536Y1116D01*
X1462Y1115D02*
X1537Y1115D01*
X1461Y1114D02*
X1537Y1114D01*
X1461Y1113D02*
X1537Y1113D01*
X1461Y1112D02*
X1537Y1112D01*
X1461Y1111D02*
X1538Y1111D01*
X1460Y1110D02*
X1538Y1110D01*
X1460Y1109D02*
X1538Y1109D01*
X1460Y1108D02*
X1538Y1108D01*
X1460Y1107D02*
X1538Y1107D01*
X1460Y1106D02*
X1538Y1106D01*
X1460Y1105D02*
X1538Y1105D01*
X1460Y1104D02*
X1539Y1104D01*
X1460Y1103D02*
X1539Y1103D01*
X1460Y1102D02*
X1539Y1102D01*
X1460Y1101D02*
X1538Y1101D01*
X1460Y1100D02*
X1538Y1100D01*
X1460Y1099D02*
X1538Y1099D01*
X1460Y1098D02*
X1538Y1098D01*
X1460Y1097D02*
X1538Y1097D01*
X1460Y1096D02*
X1538Y1096D01*
X1460Y1095D02*
X1538Y1095D01*
X1461Y1094D02*
X1538Y1094D01*
X1461Y1093D02*
X1537Y1093D01*
X293Y1092D02*
X305Y1092D01*
X393Y1092D02*
X405Y1092D01*
X493Y1092D02*
X505Y1092D01*
X593Y1092D02*
X605Y1092D01*
X693Y1092D02*
X705Y1092D01*
X793Y1092D02*
X805Y1092D01*
X1461Y1092D02*
X1537Y1092D01*
X289Y1091D02*
X310Y1091D01*
X389Y1091D02*
X410Y1091D01*
X489Y1091D02*
X510Y1091D01*
X589Y1091D02*
X610Y1091D01*
X689Y1091D02*
X710Y1091D01*
X789Y1091D02*
X810Y1091D01*
X1461Y1091D02*
X1537Y1091D01*
X286Y1090D02*
X313Y1090D01*
X386Y1090D02*
X413Y1090D01*
X486Y1090D02*
X513Y1090D01*
X586Y1090D02*
X613Y1090D01*
X686Y1090D02*
X713Y1090D01*
X786Y1090D02*
X813Y1090D01*
X1462Y1090D02*
X1537Y1090D01*
X283Y1089D02*
X315Y1089D01*
X383Y1089D02*
X415Y1089D01*
X483Y1089D02*
X515Y1089D01*
X583Y1089D02*
X615Y1089D01*
X683Y1089D02*
X715Y1089D01*
X783Y1089D02*
X815Y1089D01*
X1462Y1089D02*
X1536Y1089D01*
X281Y1088D02*
X317Y1088D01*
X381Y1088D02*
X417Y1088D01*
X481Y1088D02*
X517Y1088D01*
X581Y1088D02*
X617Y1088D01*
X681Y1088D02*
X717Y1088D01*
X781Y1088D02*
X817Y1088D01*
X1462Y1088D02*
X1536Y1088D01*
X279Y1087D02*
X319Y1087D01*
X379Y1087D02*
X419Y1087D01*
X479Y1087D02*
X519Y1087D01*
X579Y1087D02*
X619Y1087D01*
X679Y1087D02*
X719Y1087D01*
X779Y1087D02*
X819Y1087D01*
X1463Y1087D02*
X1535Y1087D01*
X278Y1086D02*
X321Y1086D01*
X378Y1086D02*
X421Y1086D01*
X478Y1086D02*
X521Y1086D01*
X578Y1086D02*
X621Y1086D01*
X678Y1086D02*
X721Y1086D01*
X778Y1086D02*
X821Y1086D01*
X1463Y1086D02*
X1535Y1086D01*
X276Y1085D02*
X322Y1085D01*
X376Y1085D02*
X422Y1085D01*
X476Y1085D02*
X522Y1085D01*
X576Y1085D02*
X622Y1085D01*
X676Y1085D02*
X722Y1085D01*
X776Y1085D02*
X822Y1085D01*
X1464Y1085D02*
X1534Y1085D01*
X275Y1084D02*
X323Y1084D01*
X375Y1084D02*
X423Y1084D01*
X475Y1084D02*
X523Y1084D01*
X575Y1084D02*
X623Y1084D01*
X675Y1084D02*
X723Y1084D01*
X775Y1084D02*
X823Y1084D01*
X1464Y1084D02*
X1534Y1084D01*
X274Y1083D02*
X325Y1083D01*
X374Y1083D02*
X425Y1083D01*
X474Y1083D02*
X525Y1083D01*
X574Y1083D02*
X625Y1083D01*
X674Y1083D02*
X725Y1083D01*
X774Y1083D02*
X825Y1083D01*
X1465Y1083D02*
X1533Y1083D01*
X273Y1082D02*
X326Y1082D01*
X373Y1082D02*
X426Y1082D01*
X473Y1082D02*
X526Y1082D01*
X573Y1082D02*
X626Y1082D01*
X673Y1082D02*
X726Y1082D01*
X773Y1082D02*
X826Y1082D01*
X1465Y1082D02*
X1533Y1082D01*
X272Y1081D02*
X327Y1081D01*
X372Y1081D02*
X427Y1081D01*
X472Y1081D02*
X527Y1081D01*
X572Y1081D02*
X627Y1081D01*
X672Y1081D02*
X727Y1081D01*
X772Y1081D02*
X827Y1081D01*
X1466Y1081D02*
X1532Y1081D01*
X271Y1080D02*
X328Y1080D01*
X371Y1080D02*
X428Y1080D01*
X471Y1080D02*
X528Y1080D01*
X571Y1080D02*
X628Y1080D01*
X671Y1080D02*
X728Y1080D01*
X771Y1080D02*
X828Y1080D01*
X1467Y1080D02*
X1531Y1080D01*
X270Y1079D02*
X329Y1079D01*
X370Y1079D02*
X429Y1079D01*
X470Y1079D02*
X529Y1079D01*
X570Y1079D02*
X629Y1079D01*
X670Y1079D02*
X729Y1079D01*
X770Y1079D02*
X829Y1079D01*
X1467Y1079D02*
X1531Y1079D01*
X269Y1078D02*
X330Y1078D01*
X369Y1078D02*
X430Y1078D01*
X469Y1078D02*
X530Y1078D01*
X569Y1078D02*
X630Y1078D01*
X669Y1078D02*
X730Y1078D01*
X769Y1078D02*
X830Y1078D01*
X1468Y1078D02*
X1530Y1078D01*
X268Y1077D02*
X330Y1077D01*
X368Y1077D02*
X430Y1077D01*
X468Y1077D02*
X530Y1077D01*
X568Y1077D02*
X630Y1077D01*
X668Y1077D02*
X730Y1077D01*
X768Y1077D02*
X830Y1077D01*
X1469Y1077D02*
X1529Y1077D01*
X267Y1076D02*
X331Y1076D01*
X367Y1076D02*
X431Y1076D01*
X467Y1076D02*
X531Y1076D01*
X567Y1076D02*
X631Y1076D01*
X667Y1076D02*
X731Y1076D01*
X767Y1076D02*
X831Y1076D01*
X1470Y1076D02*
X1528Y1076D01*
X267Y1075D02*
X332Y1075D01*
X367Y1075D02*
X432Y1075D01*
X467Y1075D02*
X532Y1075D01*
X567Y1075D02*
X632Y1075D01*
X667Y1075D02*
X732Y1075D01*
X767Y1075D02*
X832Y1075D01*
X1471Y1075D02*
X1527Y1075D01*
X266Y1074D02*
X332Y1074D01*
X366Y1074D02*
X432Y1074D01*
X466Y1074D02*
X532Y1074D01*
X566Y1074D02*
X632Y1074D01*
X666Y1074D02*
X732Y1074D01*
X766Y1074D02*
X832Y1074D01*
X1472Y1074D02*
X1526Y1074D01*
X265Y1073D02*
X333Y1073D01*
X365Y1073D02*
X433Y1073D01*
X465Y1073D02*
X533Y1073D01*
X565Y1073D02*
X633Y1073D01*
X665Y1073D02*
X733Y1073D01*
X765Y1073D02*
X833Y1073D01*
X1473Y1073D02*
X1525Y1073D01*
X265Y1072D02*
X334Y1072D01*
X365Y1072D02*
X434Y1072D01*
X465Y1072D02*
X534Y1072D01*
X565Y1072D02*
X634Y1072D01*
X665Y1072D02*
X734Y1072D01*
X765Y1072D02*
X834Y1072D01*
X1474Y1072D02*
X1524Y1072D01*
X264Y1071D02*
X334Y1071D01*
X364Y1071D02*
X434Y1071D01*
X464Y1071D02*
X534Y1071D01*
X564Y1071D02*
X634Y1071D01*
X664Y1071D02*
X734Y1071D01*
X764Y1071D02*
X834Y1071D01*
X1475Y1071D02*
X1523Y1071D01*
X264Y1070D02*
X335Y1070D01*
X364Y1070D02*
X435Y1070D01*
X464Y1070D02*
X535Y1070D01*
X564Y1070D02*
X635Y1070D01*
X664Y1070D02*
X735Y1070D01*
X764Y1070D02*
X835Y1070D01*
X1477Y1070D02*
X1522Y1070D01*
X263Y1069D02*
X335Y1069D01*
X363Y1069D02*
X435Y1069D01*
X463Y1069D02*
X535Y1069D01*
X563Y1069D02*
X635Y1069D01*
X663Y1069D02*
X735Y1069D01*
X763Y1069D02*
X835Y1069D01*
X1478Y1069D02*
X1520Y1069D01*
X263Y1068D02*
X336Y1068D01*
X363Y1068D02*
X436Y1068D01*
X463Y1068D02*
X536Y1068D01*
X563Y1068D02*
X636Y1068D01*
X663Y1068D02*
X736Y1068D01*
X763Y1068D02*
X836Y1068D01*
X1480Y1068D02*
X1518Y1068D01*
X262Y1067D02*
X336Y1067D01*
X362Y1067D02*
X436Y1067D01*
X462Y1067D02*
X536Y1067D01*
X562Y1067D02*
X636Y1067D01*
X662Y1067D02*
X736Y1067D01*
X762Y1067D02*
X836Y1067D01*
X1482Y1067D02*
X1517Y1067D01*
X262Y1066D02*
X336Y1066D01*
X362Y1066D02*
X436Y1066D01*
X462Y1066D02*
X536Y1066D01*
X562Y1066D02*
X636Y1066D01*
X662Y1066D02*
X736Y1066D01*
X762Y1066D02*
X836Y1066D01*
X1484Y1066D02*
X1515Y1066D01*
X262Y1065D02*
X337Y1065D01*
X362Y1065D02*
X437Y1065D01*
X462Y1065D02*
X537Y1065D01*
X562Y1065D02*
X637Y1065D01*
X662Y1065D02*
X737Y1065D01*
X762Y1065D02*
X837Y1065D01*
X1486Y1065D02*
X1512Y1065D01*
X261Y1064D02*
X337Y1064D01*
X361Y1064D02*
X437Y1064D01*
X461Y1064D02*
X537Y1064D01*
X561Y1064D02*
X637Y1064D01*
X661Y1064D02*
X737Y1064D01*
X761Y1064D02*
X837Y1064D01*
X1490Y1064D02*
X1509Y1064D01*
X261Y1063D02*
X337Y1063D01*
X361Y1063D02*
X437Y1063D01*
X461Y1063D02*
X537Y1063D01*
X561Y1063D02*
X637Y1063D01*
X661Y1063D02*
X737Y1063D01*
X761Y1063D02*
X837Y1063D01*
X1495Y1063D02*
X1503Y1063D01*
X261Y1062D02*
X338Y1062D01*
X361Y1062D02*
X438Y1062D01*
X461Y1062D02*
X538Y1062D01*
X561Y1062D02*
X638Y1062D01*
X661Y1062D02*
X737Y1062D01*
X761Y1062D02*
X837Y1062D01*
X261Y1061D02*
X338Y1061D01*
X361Y1061D02*
X438Y1061D01*
X461Y1061D02*
X538Y1061D01*
X561Y1061D02*
X638Y1061D01*
X661Y1061D02*
X738Y1061D01*
X761Y1061D02*
X838Y1061D01*
X261Y1060D02*
X338Y1060D01*
X361Y1060D02*
X438Y1060D01*
X461Y1060D02*
X538Y1060D01*
X561Y1060D02*
X638Y1060D01*
X660Y1060D02*
X738Y1060D01*
X760Y1060D02*
X838Y1060D01*
X260Y1059D02*
X338Y1059D01*
X360Y1059D02*
X438Y1059D01*
X460Y1059D02*
X538Y1059D01*
X560Y1059D02*
X638Y1059D01*
X660Y1059D02*
X738Y1059D01*
X760Y1059D02*
X838Y1059D01*
X260Y1058D02*
X338Y1058D01*
X360Y1058D02*
X438Y1058D01*
X460Y1058D02*
X538Y1058D01*
X560Y1058D02*
X638Y1058D01*
X660Y1058D02*
X738Y1058D01*
X760Y1058D02*
X838Y1058D01*
X260Y1057D02*
X338Y1057D01*
X360Y1057D02*
X438Y1057D01*
X460Y1057D02*
X538Y1057D01*
X560Y1057D02*
X638Y1057D01*
X660Y1057D02*
X738Y1057D01*
X760Y1057D02*
X838Y1057D01*
X260Y1056D02*
X339Y1056D01*
X360Y1056D02*
X439Y1056D01*
X460Y1056D02*
X539Y1056D01*
X560Y1056D02*
X639Y1056D01*
X660Y1056D02*
X739Y1056D01*
X760Y1056D02*
X838Y1056D01*
X260Y1055D02*
X339Y1055D01*
X360Y1055D02*
X439Y1055D01*
X460Y1055D02*
X539Y1055D01*
X560Y1055D02*
X639Y1055D01*
X660Y1055D02*
X739Y1055D01*
X760Y1055D02*
X839Y1055D01*
X260Y1054D02*
X339Y1054D01*
X360Y1054D02*
X439Y1054D01*
X460Y1054D02*
X539Y1054D01*
X560Y1054D02*
X639Y1054D01*
X660Y1054D02*
X739Y1054D01*
X760Y1054D02*
X839Y1054D01*
X260Y1053D02*
X339Y1053D01*
X360Y1053D02*
X439Y1053D01*
X460Y1053D02*
X539Y1053D01*
X560Y1053D02*
X639Y1053D01*
X660Y1053D02*
X739Y1053D01*
X760Y1053D02*
X839Y1053D01*
X260Y1052D02*
X339Y1052D01*
X360Y1052D02*
X439Y1052D01*
X460Y1052D02*
X539Y1052D01*
X560Y1052D02*
X639Y1052D01*
X660Y1052D02*
X739Y1052D01*
X760Y1052D02*
X839Y1052D01*
X260Y1051D02*
X339Y1051D01*
X360Y1051D02*
X439Y1051D01*
X460Y1051D02*
X539Y1051D01*
X560Y1051D02*
X639Y1051D01*
X660Y1051D02*
X739Y1051D01*
X760Y1051D02*
X839Y1051D01*
X260Y1050D02*
X339Y1050D01*
X360Y1050D02*
X439Y1050D01*
X460Y1050D02*
X539Y1050D01*
X560Y1050D02*
X639Y1050D01*
X660Y1050D02*
X739Y1050D01*
X760Y1050D02*
X839Y1050D01*
X260Y1049D02*
X339Y1049D01*
X360Y1049D02*
X439Y1049D01*
X460Y1049D02*
X539Y1049D01*
X560Y1049D02*
X639Y1049D01*
X660Y1049D02*
X738Y1049D01*
X760Y1049D02*
X838Y1049D01*
X260Y1048D02*
X338Y1048D01*
X360Y1048D02*
X438Y1048D01*
X460Y1048D02*
X538Y1048D01*
X560Y1048D02*
X638Y1048D01*
X660Y1048D02*
X738Y1048D01*
X760Y1048D02*
X838Y1048D01*
X260Y1047D02*
X338Y1047D01*
X360Y1047D02*
X438Y1047D01*
X460Y1047D02*
X538Y1047D01*
X560Y1047D02*
X638Y1047D01*
X660Y1047D02*
X738Y1047D01*
X760Y1047D02*
X838Y1047D01*
X260Y1046D02*
X338Y1046D01*
X360Y1046D02*
X438Y1046D01*
X460Y1046D02*
X538Y1046D01*
X560Y1046D02*
X638Y1046D01*
X660Y1046D02*
X738Y1046D01*
X760Y1046D02*
X838Y1046D01*
X261Y1045D02*
X338Y1045D01*
X361Y1045D02*
X438Y1045D01*
X461Y1045D02*
X538Y1045D01*
X561Y1045D02*
X638Y1045D01*
X661Y1045D02*
X738Y1045D01*
X761Y1045D02*
X838Y1045D01*
X261Y1044D02*
X338Y1044D01*
X361Y1044D02*
X438Y1044D01*
X461Y1044D02*
X538Y1044D01*
X561Y1044D02*
X638Y1044D01*
X661Y1044D02*
X738Y1044D01*
X761Y1044D02*
X838Y1044D01*
X261Y1043D02*
X337Y1043D01*
X361Y1043D02*
X437Y1043D01*
X461Y1043D02*
X537Y1043D01*
X561Y1043D02*
X637Y1043D01*
X661Y1043D02*
X737Y1043D01*
X761Y1043D02*
X837Y1043D01*
X261Y1042D02*
X337Y1042D01*
X361Y1042D02*
X437Y1042D01*
X461Y1042D02*
X537Y1042D01*
X561Y1042D02*
X637Y1042D01*
X661Y1042D02*
X737Y1042D01*
X761Y1042D02*
X837Y1042D01*
X1493Y1042D02*
X1505Y1042D01*
X262Y1041D02*
X337Y1041D01*
X362Y1041D02*
X437Y1041D01*
X462Y1041D02*
X537Y1041D01*
X562Y1041D02*
X637Y1041D01*
X662Y1041D02*
X737Y1041D01*
X761Y1041D02*
X837Y1041D01*
X1488Y1041D02*
X1510Y1041D01*
X262Y1040D02*
X337Y1040D01*
X362Y1040D02*
X437Y1040D01*
X462Y1040D02*
X537Y1040D01*
X562Y1040D02*
X637Y1040D01*
X662Y1040D02*
X737Y1040D01*
X762Y1040D02*
X837Y1040D01*
X1485Y1040D02*
X1513Y1040D01*
X262Y1039D02*
X336Y1039D01*
X362Y1039D02*
X436Y1039D01*
X462Y1039D02*
X536Y1039D01*
X562Y1039D02*
X636Y1039D01*
X662Y1039D02*
X736Y1039D01*
X762Y1039D02*
X836Y1039D01*
X1483Y1039D02*
X1515Y1039D01*
X263Y1038D02*
X336Y1038D01*
X363Y1038D02*
X436Y1038D01*
X463Y1038D02*
X536Y1038D01*
X563Y1038D02*
X636Y1038D01*
X663Y1038D02*
X736Y1038D01*
X763Y1038D02*
X836Y1038D01*
X1481Y1038D02*
X1517Y1038D01*
X263Y1037D02*
X336Y1037D01*
X363Y1037D02*
X436Y1037D01*
X463Y1037D02*
X536Y1037D01*
X563Y1037D02*
X636Y1037D01*
X663Y1037D02*
X736Y1037D01*
X763Y1037D02*
X835Y1037D01*
X1479Y1037D02*
X1519Y1037D01*
X263Y1036D02*
X335Y1036D01*
X363Y1036D02*
X435Y1036D01*
X463Y1036D02*
X535Y1036D01*
X563Y1036D02*
X635Y1036D01*
X663Y1036D02*
X735Y1036D01*
X763Y1036D02*
X835Y1036D01*
X1478Y1036D02*
X1521Y1036D01*
X264Y1035D02*
X335Y1035D01*
X364Y1035D02*
X435Y1035D01*
X464Y1035D02*
X535Y1035D01*
X564Y1035D02*
X635Y1035D01*
X664Y1035D02*
X735Y1035D01*
X764Y1035D02*
X835Y1035D01*
X1476Y1035D02*
X1522Y1035D01*
X264Y1034D02*
X334Y1034D01*
X364Y1034D02*
X434Y1034D01*
X464Y1034D02*
X534Y1034D01*
X564Y1034D02*
X634Y1034D01*
X664Y1034D02*
X734Y1034D01*
X764Y1034D02*
X834Y1034D01*
X1475Y1034D02*
X1523Y1034D01*
X265Y1033D02*
X334Y1033D01*
X365Y1033D02*
X434Y1033D01*
X465Y1033D02*
X533Y1033D01*
X565Y1033D02*
X633Y1033D01*
X665Y1033D02*
X733Y1033D01*
X765Y1033D02*
X833Y1033D01*
X1474Y1033D02*
X1525Y1033D01*
X266Y1032D02*
X333Y1032D01*
X366Y1032D02*
X433Y1032D01*
X466Y1032D02*
X533Y1032D01*
X566Y1032D02*
X633Y1032D01*
X666Y1032D02*
X733Y1032D01*
X766Y1032D02*
X833Y1032D01*
X1473Y1032D02*
X1526Y1032D01*
X266Y1031D02*
X332Y1031D01*
X366Y1031D02*
X432Y1031D01*
X466Y1031D02*
X532Y1031D01*
X566Y1031D02*
X632Y1031D01*
X666Y1031D02*
X732Y1031D01*
X766Y1031D02*
X832Y1031D01*
X1471Y1031D02*
X1527Y1031D01*
X267Y1030D02*
X332Y1030D01*
X367Y1030D02*
X432Y1030D01*
X467Y1030D02*
X532Y1030D01*
X567Y1030D02*
X632Y1030D01*
X667Y1030D02*
X732Y1030D01*
X767Y1030D02*
X832Y1030D01*
X1470Y1030D02*
X1528Y1030D01*
X268Y1029D02*
X331Y1029D01*
X368Y1029D02*
X431Y1029D01*
X468Y1029D02*
X531Y1029D01*
X568Y1029D02*
X631Y1029D01*
X668Y1029D02*
X731Y1029D01*
X768Y1029D02*
X831Y1029D01*
X1470Y1029D02*
X1529Y1029D01*
X268Y1028D02*
X330Y1028D01*
X368Y1028D02*
X430Y1028D01*
X468Y1028D02*
X530Y1028D01*
X568Y1028D02*
X630Y1028D01*
X668Y1028D02*
X730Y1028D01*
X768Y1028D02*
X830Y1028D01*
X1469Y1028D02*
X1529Y1028D01*
X269Y1027D02*
X329Y1027D01*
X369Y1027D02*
X429Y1027D01*
X469Y1027D02*
X529Y1027D01*
X569Y1027D02*
X629Y1027D01*
X669Y1027D02*
X729Y1027D01*
X769Y1027D02*
X829Y1027D01*
X1468Y1027D02*
X1530Y1027D01*
X270Y1026D02*
X329Y1026D01*
X370Y1026D02*
X428Y1026D01*
X470Y1026D02*
X528Y1026D01*
X570Y1026D02*
X628Y1026D01*
X670Y1026D02*
X728Y1026D01*
X770Y1026D02*
X828Y1026D01*
X1467Y1026D02*
X1531Y1026D01*
X271Y1025D02*
X328Y1025D01*
X371Y1025D02*
X428Y1025D01*
X471Y1025D02*
X528Y1025D01*
X571Y1025D02*
X628Y1025D01*
X671Y1025D02*
X728Y1025D01*
X771Y1025D02*
X828Y1025D01*
X1467Y1025D02*
X1532Y1025D01*
X272Y1024D02*
X327Y1024D01*
X372Y1024D02*
X427Y1024D01*
X472Y1024D02*
X527Y1024D01*
X572Y1024D02*
X627Y1024D01*
X672Y1024D02*
X727Y1024D01*
X772Y1024D02*
X827Y1024D01*
X1466Y1024D02*
X1532Y1024D01*
X273Y1023D02*
X326Y1023D01*
X373Y1023D02*
X425Y1023D01*
X473Y1023D02*
X525Y1023D01*
X573Y1023D02*
X625Y1023D01*
X673Y1023D02*
X725Y1023D01*
X773Y1023D02*
X825Y1023D01*
X1465Y1023D02*
X1533Y1023D01*
X274Y1022D02*
X324Y1022D01*
X374Y1022D02*
X424Y1022D01*
X474Y1022D02*
X524Y1022D01*
X574Y1022D02*
X624Y1022D01*
X674Y1022D02*
X724Y1022D01*
X774Y1022D02*
X824Y1022D01*
X1465Y1022D02*
X1534Y1022D01*
X275Y1021D02*
X323Y1021D01*
X375Y1021D02*
X423Y1021D01*
X475Y1021D02*
X523Y1021D01*
X575Y1021D02*
X623Y1021D01*
X675Y1021D02*
X723Y1021D01*
X775Y1021D02*
X823Y1021D01*
X1464Y1021D02*
X1534Y1021D01*
X277Y1020D02*
X322Y1020D01*
X377Y1020D02*
X422Y1020D01*
X477Y1020D02*
X522Y1020D01*
X577Y1020D02*
X622Y1020D01*
X677Y1020D02*
X722Y1020D01*
X777Y1020D02*
X822Y1020D01*
X1464Y1020D02*
X1535Y1020D01*
X278Y1019D02*
X320Y1019D01*
X378Y1019D02*
X420Y1019D01*
X478Y1019D02*
X520Y1019D01*
X578Y1019D02*
X620Y1019D01*
X678Y1019D02*
X720Y1019D01*
X778Y1019D02*
X820Y1019D01*
X1463Y1019D02*
X1535Y1019D01*
X280Y1018D02*
X319Y1018D01*
X380Y1018D02*
X419Y1018D01*
X480Y1018D02*
X519Y1018D01*
X580Y1018D02*
X619Y1018D01*
X680Y1018D02*
X719Y1018D01*
X780Y1018D02*
X818Y1018D01*
X1463Y1018D02*
X1536Y1018D01*
X282Y1017D02*
X317Y1017D01*
X382Y1017D02*
X417Y1017D01*
X482Y1017D02*
X517Y1017D01*
X582Y1017D02*
X617Y1017D01*
X682Y1017D02*
X717Y1017D01*
X782Y1017D02*
X817Y1017D01*
X1462Y1017D02*
X1536Y1017D01*
X284Y1016D02*
X315Y1016D01*
X384Y1016D02*
X415Y1016D01*
X484Y1016D02*
X515Y1016D01*
X584Y1016D02*
X615Y1016D01*
X684Y1016D02*
X715Y1016D01*
X784Y1016D02*
X815Y1016D01*
X1462Y1016D02*
X1536Y1016D01*
X286Y1015D02*
X312Y1015D01*
X386Y1015D02*
X412Y1015D01*
X486Y1015D02*
X512Y1015D01*
X586Y1015D02*
X612Y1015D01*
X686Y1015D02*
X712Y1015D01*
X786Y1015D02*
X812Y1015D01*
X1462Y1015D02*
X1537Y1015D01*
X290Y1014D02*
X309Y1014D01*
X390Y1014D02*
X409Y1014D01*
X490Y1014D02*
X509Y1014D01*
X590Y1014D02*
X609Y1014D01*
X690Y1014D02*
X709Y1014D01*
X790Y1014D02*
X809Y1014D01*
X1461Y1014D02*
X1537Y1014D01*
X295Y1013D02*
X303Y1013D01*
X395Y1013D02*
X403Y1013D01*
X495Y1013D02*
X503Y1013D01*
X595Y1013D02*
X603Y1013D01*
X695Y1013D02*
X703Y1013D01*
X795Y1013D02*
X803Y1013D01*
X1461Y1013D02*
X1537Y1013D01*
X1461Y1012D02*
X1537Y1012D01*
X1461Y1011D02*
X1538Y1011D01*
X1460Y1010D02*
X1538Y1010D01*
X1460Y1009D02*
X1538Y1009D01*
X1460Y1008D02*
X1538Y1008D01*
X1460Y1007D02*
X1538Y1007D01*
X1460Y1006D02*
X1538Y1006D01*
X1460Y1005D02*
X1538Y1005D01*
X1460Y1004D02*
X1539Y1004D01*
X1460Y1003D02*
X1539Y1003D01*
X1460Y1002D02*
X1539Y1002D01*
X1460Y1001D02*
X1538Y1001D01*
X1460Y1000D02*
X1538Y1000D01*
X1460Y999D02*
X1538Y999D01*
X1460Y998D02*
X1538Y998D01*
X1460Y997D02*
X1538Y997D01*
X1460Y996D02*
X1538Y996D01*
X1460Y995D02*
X1538Y995D01*
X1461Y994D02*
X1538Y994D01*
X1461Y993D02*
X1537Y993D01*
X1461Y992D02*
X1537Y992D01*
X1461Y991D02*
X1537Y991D01*
X1462Y990D02*
X1536Y990D01*
X1462Y989D02*
X1536Y989D01*
X1462Y988D02*
X1536Y988D01*
X1463Y987D02*
X1535Y987D01*
X1463Y986D02*
X1535Y986D01*
X1464Y985D02*
X1534Y985D01*
X1464Y984D02*
X1534Y984D01*
X1465Y983D02*
X1533Y983D01*
X1465Y982D02*
X1533Y982D01*
X1466Y981D02*
X1532Y981D01*
X1467Y980D02*
X1531Y980D01*
X1467Y979D02*
X1531Y979D01*
X1468Y978D02*
X1530Y978D01*
X1469Y977D02*
X1529Y977D01*
X1470Y976D02*
X1528Y976D01*
X1471Y975D02*
X1527Y975D01*
X1472Y974D02*
X1526Y974D01*
X1473Y973D02*
X1525Y973D01*
X1474Y972D02*
X1524Y972D01*
X1475Y971D02*
X1523Y971D01*
X1477Y970D02*
X1522Y970D01*
X1478Y969D02*
X1520Y969D01*
X1480Y968D02*
X1518Y968D01*
X1482Y967D02*
X1517Y967D01*
X1484Y966D02*
X1515Y966D01*
X1486Y965D02*
X1512Y965D01*
X1490Y964D02*
X1508Y964D01*
X1495Y963D02*
X1503Y963D01*
X1493Y942D02*
X1505Y942D01*
X1488Y941D02*
X1510Y941D01*
X1485Y940D02*
X1513Y940D01*
X1483Y939D02*
X1515Y939D01*
X1481Y938D02*
X1517Y938D01*
X1479Y937D02*
X1519Y937D01*
X1478Y936D02*
X1521Y936D01*
X1476Y935D02*
X1522Y935D01*
X1475Y934D02*
X1523Y934D01*
X1474Y933D02*
X1525Y933D01*
X1472Y932D02*
X1526Y932D01*
X1471Y931D02*
X1527Y931D01*
X1470Y930D02*
X1528Y930D01*
X1470Y929D02*
X1529Y929D01*
X1469Y928D02*
X1529Y928D01*
X1468Y927D02*
X1530Y927D01*
X1467Y926D02*
X1531Y926D01*
X1467Y925D02*
X1532Y925D01*
X1466Y924D02*
X1532Y924D01*
X1465Y923D02*
X1533Y923D01*
X1465Y922D02*
X1534Y922D01*
X1464Y921D02*
X1534Y921D01*
X1464Y920D02*
X1535Y920D01*
X1463Y919D02*
X1535Y919D01*
X1463Y918D02*
X1536Y918D01*
X1462Y917D02*
X1536Y917D01*
X1462Y916D02*
X1536Y916D01*
X1462Y915D02*
X1537Y915D01*
X1461Y914D02*
X1537Y914D01*
X1461Y913D02*
X1537Y913D01*
X1461Y912D02*
X1537Y912D01*
X1461Y911D02*
X1538Y911D01*
X1460Y910D02*
X1538Y910D01*
X1460Y909D02*
X1538Y909D01*
X1460Y908D02*
X1538Y908D01*
X1460Y907D02*
X1538Y907D01*
X1460Y906D02*
X1538Y906D01*
X1460Y905D02*
X1538Y905D01*
X1460Y904D02*
X1539Y904D01*
X1460Y903D02*
X1539Y903D01*
X1460Y902D02*
X1539Y902D01*
X1460Y901D02*
X1538Y901D01*
X1460Y900D02*
X1538Y900D01*
X1460Y899D02*
X1538Y899D01*
X1460Y898D02*
X1538Y898D01*
X1460Y897D02*
X1538Y897D01*
X1460Y896D02*
X1538Y896D01*
X1460Y895D02*
X1538Y895D01*
X1461Y894D02*
X1538Y894D01*
X1461Y893D02*
X1537Y893D01*
X1461Y892D02*
X1537Y892D01*
X1461Y891D02*
X1537Y891D01*
X1462Y890D02*
X1536Y890D01*
X1462Y889D02*
X1536Y889D01*
X1462Y888D02*
X1536Y888D01*
X1463Y887D02*
X1535Y887D01*
X1463Y886D02*
X1535Y886D01*
X1464Y885D02*
X1534Y885D01*
X1464Y884D02*
X1534Y884D01*
X1465Y883D02*
X1533Y883D01*
X1465Y882D02*
X1533Y882D01*
X1466Y881D02*
X1532Y881D01*
X1467Y880D02*
X1531Y880D01*
X1467Y879D02*
X1531Y879D01*
X1468Y878D02*
X1530Y878D01*
X1469Y877D02*
X1529Y877D01*
X1470Y876D02*
X1528Y876D01*
X1471Y875D02*
X1527Y875D01*
X1472Y874D02*
X1526Y874D01*
X1473Y873D02*
X1525Y873D01*
X1474Y872D02*
X1524Y872D01*
X1475Y871D02*
X1523Y871D01*
X1477Y870D02*
X1522Y870D01*
X1478Y869D02*
X1520Y869D01*
X1480Y868D02*
X1518Y868D01*
X1482Y867D02*
X1517Y867D01*
X1484Y866D02*
X1515Y866D01*
X1486Y865D02*
X1512Y865D01*
X1490Y864D02*
X1508Y864D01*
X1495Y863D02*
X1503Y863D01*
X1493Y842D02*
X1505Y842D01*
X1488Y841D02*
X1510Y841D01*
X1485Y840D02*
X1513Y840D01*
X1483Y839D02*
X1515Y839D01*
X1481Y838D02*
X1517Y838D01*
X1479Y837D02*
X1519Y837D01*
X1478Y836D02*
X1521Y836D01*
X1476Y835D02*
X1522Y835D01*
X1475Y834D02*
X1523Y834D01*
X1474Y833D02*
X1525Y833D01*
X1472Y832D02*
X1526Y832D01*
X1471Y831D02*
X1527Y831D01*
X1470Y830D02*
X1528Y830D01*
X1470Y829D02*
X1529Y829D01*
X1469Y828D02*
X1530Y828D01*
X1468Y827D02*
X1530Y827D01*
X1467Y826D02*
X1531Y826D01*
X1467Y825D02*
X1532Y825D01*
X1466Y824D02*
X1532Y824D01*
X1465Y823D02*
X1533Y823D01*
X1465Y822D02*
X1534Y822D01*
X1464Y821D02*
X1534Y821D01*
X1464Y820D02*
X1535Y820D01*
X1463Y819D02*
X1535Y819D01*
X1463Y818D02*
X1536Y818D01*
X1462Y817D02*
X1536Y817D01*
X1462Y816D02*
X1536Y816D01*
X1462Y815D02*
X1537Y815D01*
X1461Y814D02*
X1537Y814D01*
X1461Y813D02*
X1537Y813D01*
X1461Y812D02*
X1537Y812D01*
X1461Y811D02*
X1538Y811D01*
X1460Y810D02*
X1538Y810D01*
X1460Y809D02*
X1538Y809D01*
X1460Y808D02*
X1538Y808D01*
X1460Y807D02*
X1538Y807D01*
X1460Y806D02*
X1538Y806D01*
X1460Y805D02*
X1538Y805D01*
X1460Y804D02*
X1539Y804D01*
X1460Y803D02*
X1539Y803D01*
X1460Y802D02*
X1539Y802D01*
X1460Y801D02*
X1538Y801D01*
X1460Y800D02*
X1538Y800D01*
X1460Y799D02*
X1538Y799D01*
X1460Y798D02*
X1538Y798D01*
X1460Y797D02*
X1538Y797D01*
X1460Y796D02*
X1538Y796D01*
X1460Y795D02*
X1538Y795D01*
X1461Y794D02*
X1538Y794D01*
X1461Y793D02*
X1537Y793D01*
X1461Y792D02*
X1537Y792D01*
X1461Y791D02*
X1537Y791D01*
X1462Y790D02*
X1536Y790D01*
X1462Y789D02*
X1536Y789D01*
X1462Y788D02*
X1536Y788D01*
X1463Y787D02*
X1535Y787D01*
X1463Y786D02*
X1535Y786D01*
X1464Y785D02*
X1534Y785D01*
X1464Y784D02*
X1534Y784D01*
X1465Y783D02*
X1533Y783D01*
X1465Y782D02*
X1533Y782D01*
X1466Y781D02*
X1532Y781D01*
X1467Y780D02*
X1531Y780D01*
X1468Y779D02*
X1531Y779D01*
X1468Y778D02*
X1530Y778D01*
X1469Y777D02*
X1529Y777D01*
X1470Y776D02*
X1528Y776D01*
X1471Y775D02*
X1527Y775D01*
X1472Y774D02*
X1526Y774D01*
X1473Y773D02*
X1525Y773D01*
X1474Y772D02*
X1524Y772D01*
X1475Y771D02*
X1523Y771D01*
X1477Y770D02*
X1521Y770D01*
X1478Y769D02*
X1520Y769D01*
X1480Y768D02*
X1518Y768D01*
X1482Y767D02*
X1517Y767D01*
X1484Y766D02*
X1514Y766D01*
X1486Y765D02*
X1512Y765D01*
X1490Y764D02*
X1508Y764D01*
X1495Y763D02*
X1503Y763D01*
D02*
G04 End of Mask0*
M02*