G04 MADE WITH FRITZING*
G04 WWW.FRITZING.ORG*
G04 DOUBLE SIDED*
G04 HOLES PLATED*
G04 CONTOUR ON CENTER OF CONTOUR VECTOR*
%ASAXBY*%
%FSLAX23Y23*%
%MOIN*%
%OFA0B0*%
%SFA1.0B1.0*%
%ADD10C,0.039370*%
%ADD11C,0.070000*%
%ADD12C,0.079370*%
%ADD13C,0.065278*%
%ADD14C,0.082000*%
%ADD15C,0.075000*%
%ADD16R,0.079370X0.079370*%
%ADD17R,0.082000X0.082000*%
%ADD18C,0.024000*%
%ADD19R,0.001000X0.001000*%
%LNCOPPER0*%
G90*
G70*
G54D10*
X899Y252D03*
X1399Y252D03*
X1000Y453D03*
X249Y1802D03*
X149Y1802D03*
X449Y1802D03*
G54D11*
X1499Y802D03*
X1499Y902D03*
X1499Y1002D03*
X1499Y1102D03*
X1499Y1202D03*
X1499Y1302D03*
X299Y1052D03*
X399Y1052D03*
X499Y1052D03*
X599Y1052D03*
X699Y1052D03*
X799Y1052D03*
G54D12*
X1849Y402D03*
X1849Y599D03*
X1899Y1502D03*
X1899Y1699D03*
G54D13*
X1499Y102D03*
X1599Y102D03*
X1699Y102D03*
X1799Y102D03*
X1899Y102D03*
X1039Y2002D03*
X939Y2002D03*
X839Y2002D03*
X739Y2002D03*
X639Y2002D03*
X539Y2002D03*
X439Y2002D03*
X339Y2002D03*
X239Y2002D03*
X139Y2002D03*
X1899Y2002D03*
X1799Y2002D03*
X1699Y2002D03*
X1599Y2002D03*
X1499Y2002D03*
X1399Y2002D03*
X1299Y2002D03*
X1199Y2002D03*
X599Y102D03*
X499Y102D03*
X699Y102D03*
X799Y102D03*
X899Y102D03*
X999Y102D03*
X1099Y102D03*
X1199Y102D03*
X1399Y102D03*
G54D14*
X899Y752D03*
X899Y652D03*
X899Y552D03*
G54D15*
X1099Y402D03*
X1399Y402D03*
X1349Y802D03*
X1349Y1102D03*
X1349Y1302D03*
X1049Y1302D03*
G54D11*
X1199Y902D03*
X1199Y802D03*
G54D16*
X1849Y402D03*
X1899Y1502D03*
G54D17*
X899Y752D03*
G54D18*
X1214Y802D02*
X1331Y802D01*
D02*
X1399Y385D02*
X1399Y259D01*
D02*
X1416Y402D02*
X1829Y402D01*
D02*
X914Y538D02*
X994Y459D01*
D02*
X1348Y703D02*
X1349Y785D01*
D02*
X1006Y458D02*
X1348Y703D01*
D02*
X1349Y1285D02*
X1349Y1120D01*
D02*
X1200Y1154D02*
X1199Y917D01*
D02*
X1061Y1290D02*
X1200Y1154D01*
D02*
X897Y1154D02*
X1036Y1290D01*
D02*
X899Y773D02*
X897Y1154D01*
D02*
X1950Y551D02*
X1950Y851D01*
D02*
X1950Y851D02*
X1899Y901D01*
D02*
X1899Y501D02*
X1950Y551D01*
D02*
X1899Y901D02*
X1514Y902D01*
D02*
X1251Y501D02*
X1899Y501D01*
D02*
X1113Y412D02*
X1251Y501D01*
D02*
X905Y257D02*
X1085Y392D01*
D02*
X299Y753D02*
X299Y1037D01*
D02*
X897Y450D02*
X299Y753D01*
D02*
X899Y260D02*
X897Y450D01*
D02*
X699Y1037D02*
X699Y753D01*
D02*
X699Y753D02*
X880Y662D01*
D02*
X800Y1301D02*
X998Y1503D01*
D02*
X799Y1067D02*
X800Y1301D01*
D02*
X998Y1503D02*
X1879Y1502D01*
D02*
X399Y803D02*
X880Y562D01*
D02*
X399Y1037D02*
X399Y803D01*
D02*
X1900Y1003D02*
X2000Y904D01*
D02*
X2000Y904D02*
X2000Y303D01*
D02*
X1514Y1002D02*
X1900Y1003D01*
D02*
X2000Y303D02*
X1813Y117D01*
D02*
X598Y1204D02*
X248Y1503D01*
D02*
X248Y1503D02*
X249Y1794D01*
D02*
X599Y1067D02*
X598Y1204D01*
D02*
X1900Y1103D02*
X2048Y952D01*
D02*
X2048Y952D02*
X2048Y251D01*
D02*
X1514Y1102D02*
X1900Y1103D01*
D02*
X2048Y251D02*
X1913Y117D01*
D02*
X497Y1154D02*
X147Y1453D01*
D02*
X147Y1453D02*
X149Y1794D01*
D02*
X499Y1067D02*
X497Y1154D01*
D02*
X1366Y1302D02*
X1484Y1302D01*
D02*
X1366Y802D02*
X1484Y802D01*
D02*
X1798Y804D02*
X1514Y802D01*
D02*
X1849Y754D02*
X1798Y804D01*
D02*
X1849Y619D02*
X1849Y754D01*
D02*
X454Y1797D02*
X547Y1701D01*
D02*
X547Y1701D02*
X1879Y1699D01*
G54D19*
X1494Y1337D02*
X1504Y1337D01*
X1490Y1336D02*
X1509Y1336D01*
X1487Y1335D02*
X1511Y1335D01*
X1485Y1334D02*
X1514Y1334D01*
X1483Y1333D02*
X1516Y1333D01*
X1481Y1332D02*
X1517Y1332D01*
X1479Y1331D02*
X1519Y1331D01*
X1478Y1330D02*
X1520Y1330D01*
X1477Y1329D02*
X1522Y1329D01*
X1476Y1328D02*
X1523Y1328D01*
X1475Y1327D02*
X1524Y1327D01*
X1474Y1326D02*
X1525Y1326D01*
X1473Y1325D02*
X1525Y1325D01*
X1472Y1324D02*
X1526Y1324D01*
X1471Y1323D02*
X1527Y1323D01*
X1471Y1322D02*
X1528Y1322D01*
X1470Y1321D02*
X1528Y1321D01*
X1469Y1320D02*
X1529Y1320D01*
X1469Y1319D02*
X1529Y1319D01*
X1468Y1318D02*
X1530Y1318D01*
X1468Y1317D02*
X1494Y1317D01*
X1504Y1317D02*
X1530Y1317D01*
X1467Y1316D02*
X1492Y1316D01*
X1507Y1316D02*
X1531Y1316D01*
X1467Y1315D02*
X1490Y1315D01*
X1508Y1315D02*
X1531Y1315D01*
X1467Y1314D02*
X1489Y1314D01*
X1509Y1314D02*
X1531Y1314D01*
X1466Y1313D02*
X1488Y1313D01*
X1510Y1313D02*
X1532Y1313D01*
X1466Y1312D02*
X1487Y1312D01*
X1511Y1312D02*
X1532Y1312D01*
X1466Y1311D02*
X1486Y1311D01*
X1512Y1311D02*
X1532Y1311D01*
X1466Y1310D02*
X1485Y1310D01*
X1513Y1310D02*
X1533Y1310D01*
X1465Y1309D02*
X1485Y1309D01*
X1513Y1309D02*
X1533Y1309D01*
X1465Y1308D02*
X1484Y1308D01*
X1514Y1308D02*
X1533Y1308D01*
X1465Y1307D02*
X1484Y1307D01*
X1514Y1307D02*
X1533Y1307D01*
X1465Y1306D02*
X1484Y1306D01*
X1514Y1306D02*
X1533Y1306D01*
X1465Y1305D02*
X1484Y1305D01*
X1514Y1305D02*
X1533Y1305D01*
X1465Y1304D02*
X1484Y1304D01*
X1515Y1304D02*
X1534Y1304D01*
X1465Y1303D02*
X1484Y1303D01*
X1515Y1303D02*
X1534Y1303D01*
X1465Y1302D02*
X1484Y1302D01*
X1515Y1302D02*
X1534Y1302D01*
X1465Y1301D02*
X1484Y1301D01*
X1514Y1301D02*
X1533Y1301D01*
X1465Y1300D02*
X1484Y1300D01*
X1514Y1300D02*
X1533Y1300D01*
X1465Y1299D02*
X1484Y1299D01*
X1514Y1299D02*
X1533Y1299D01*
X1465Y1298D02*
X1484Y1298D01*
X1514Y1298D02*
X1533Y1298D01*
X1465Y1297D02*
X1485Y1297D01*
X1514Y1297D02*
X1533Y1297D01*
X1465Y1296D02*
X1485Y1296D01*
X1513Y1296D02*
X1533Y1296D01*
X1466Y1295D02*
X1486Y1295D01*
X1513Y1295D02*
X1533Y1295D01*
X1466Y1294D02*
X1486Y1294D01*
X1512Y1294D02*
X1532Y1294D01*
X1466Y1293D02*
X1487Y1293D01*
X1511Y1293D02*
X1532Y1293D01*
X1466Y1292D02*
X1488Y1292D01*
X1510Y1292D02*
X1532Y1292D01*
X1467Y1291D02*
X1489Y1291D01*
X1509Y1291D02*
X1531Y1291D01*
X1467Y1290D02*
X1490Y1290D01*
X1508Y1290D02*
X1531Y1290D01*
X1468Y1289D02*
X1492Y1289D01*
X1506Y1289D02*
X1531Y1289D01*
X1468Y1288D02*
X1495Y1288D01*
X1503Y1288D02*
X1530Y1288D01*
X1469Y1287D02*
X1530Y1287D01*
X1469Y1286D02*
X1529Y1286D01*
X1470Y1285D02*
X1529Y1285D01*
X1470Y1284D02*
X1528Y1284D01*
X1471Y1283D02*
X1527Y1283D01*
X1471Y1282D02*
X1527Y1282D01*
X1472Y1281D02*
X1526Y1281D01*
X1473Y1280D02*
X1525Y1280D01*
X1474Y1279D02*
X1524Y1279D01*
X1475Y1278D02*
X1523Y1278D01*
X1476Y1277D02*
X1522Y1277D01*
X1477Y1276D02*
X1521Y1276D01*
X1478Y1275D02*
X1520Y1275D01*
X1480Y1274D02*
X1519Y1274D01*
X1481Y1273D02*
X1517Y1273D01*
X1483Y1272D02*
X1515Y1272D01*
X1485Y1271D02*
X1513Y1271D01*
X1488Y1270D02*
X1511Y1270D01*
X1491Y1269D02*
X1508Y1269D01*
X1495Y1268D02*
X1503Y1268D01*
X1494Y1237D02*
X1505Y1237D01*
X1490Y1236D02*
X1509Y1236D01*
X1487Y1235D02*
X1511Y1235D01*
X1485Y1234D02*
X1514Y1234D01*
X1483Y1233D02*
X1516Y1233D01*
X1481Y1232D02*
X1517Y1232D01*
X1479Y1231D02*
X1519Y1231D01*
X1478Y1230D02*
X1520Y1230D01*
X1477Y1229D02*
X1522Y1229D01*
X1476Y1228D02*
X1523Y1228D01*
X1475Y1227D02*
X1524Y1227D01*
X1474Y1226D02*
X1525Y1226D01*
X1473Y1225D02*
X1525Y1225D01*
X1472Y1224D02*
X1526Y1224D01*
X1471Y1223D02*
X1527Y1223D01*
X1471Y1222D02*
X1528Y1222D01*
X1470Y1221D02*
X1528Y1221D01*
X1469Y1220D02*
X1529Y1220D01*
X1469Y1219D02*
X1529Y1219D01*
X1468Y1218D02*
X1530Y1218D01*
X1468Y1217D02*
X1494Y1217D01*
X1504Y1217D02*
X1530Y1217D01*
X1467Y1216D02*
X1492Y1216D01*
X1507Y1216D02*
X1531Y1216D01*
X1467Y1215D02*
X1490Y1215D01*
X1508Y1215D02*
X1531Y1215D01*
X1467Y1214D02*
X1489Y1214D01*
X1509Y1214D02*
X1531Y1214D01*
X1466Y1213D02*
X1488Y1213D01*
X1510Y1213D02*
X1532Y1213D01*
X1466Y1212D02*
X1487Y1212D01*
X1511Y1212D02*
X1532Y1212D01*
X1466Y1211D02*
X1486Y1211D01*
X1512Y1211D02*
X1532Y1211D01*
X1466Y1210D02*
X1485Y1210D01*
X1513Y1210D02*
X1533Y1210D01*
X1465Y1209D02*
X1485Y1209D01*
X1513Y1209D02*
X1533Y1209D01*
X1465Y1208D02*
X1484Y1208D01*
X1514Y1208D02*
X1533Y1208D01*
X1465Y1207D02*
X1484Y1207D01*
X1514Y1207D02*
X1533Y1207D01*
X1465Y1206D02*
X1484Y1206D01*
X1514Y1206D02*
X1533Y1206D01*
X1465Y1205D02*
X1484Y1205D01*
X1514Y1205D02*
X1533Y1205D01*
X1465Y1204D02*
X1484Y1204D01*
X1515Y1204D02*
X1534Y1204D01*
X1465Y1203D02*
X1484Y1203D01*
X1515Y1203D02*
X1534Y1203D01*
X1465Y1202D02*
X1484Y1202D01*
X1515Y1202D02*
X1534Y1202D01*
X1465Y1201D02*
X1484Y1201D01*
X1514Y1201D02*
X1533Y1201D01*
X1465Y1200D02*
X1484Y1200D01*
X1514Y1200D02*
X1533Y1200D01*
X1465Y1199D02*
X1484Y1199D01*
X1514Y1199D02*
X1533Y1199D01*
X1465Y1198D02*
X1484Y1198D01*
X1514Y1198D02*
X1533Y1198D01*
X1465Y1197D02*
X1485Y1197D01*
X1514Y1197D02*
X1533Y1197D01*
X1465Y1196D02*
X1485Y1196D01*
X1513Y1196D02*
X1533Y1196D01*
X1466Y1195D02*
X1486Y1195D01*
X1513Y1195D02*
X1533Y1195D01*
X1466Y1194D02*
X1486Y1194D01*
X1512Y1194D02*
X1532Y1194D01*
X1466Y1193D02*
X1487Y1193D01*
X1511Y1193D02*
X1532Y1193D01*
X1466Y1192D02*
X1488Y1192D01*
X1510Y1192D02*
X1532Y1192D01*
X1467Y1191D02*
X1489Y1191D01*
X1509Y1191D02*
X1531Y1191D01*
X1467Y1190D02*
X1490Y1190D01*
X1508Y1190D02*
X1531Y1190D01*
X1468Y1189D02*
X1492Y1189D01*
X1506Y1189D02*
X1531Y1189D01*
X1468Y1188D02*
X1495Y1188D01*
X1503Y1188D02*
X1530Y1188D01*
X1469Y1187D02*
X1530Y1187D01*
X1469Y1186D02*
X1529Y1186D01*
X1470Y1185D02*
X1529Y1185D01*
X1470Y1184D02*
X1528Y1184D01*
X1471Y1183D02*
X1527Y1183D01*
X1471Y1182D02*
X1527Y1182D01*
X1472Y1181D02*
X1526Y1181D01*
X1473Y1180D02*
X1525Y1180D01*
X1474Y1179D02*
X1524Y1179D01*
X1475Y1178D02*
X1523Y1178D01*
X1476Y1177D02*
X1522Y1177D01*
X1477Y1176D02*
X1521Y1176D01*
X1478Y1175D02*
X1520Y1175D01*
X1480Y1174D02*
X1519Y1174D01*
X1481Y1173D02*
X1517Y1173D01*
X1483Y1172D02*
X1515Y1172D01*
X1485Y1171D02*
X1513Y1171D01*
X1488Y1170D02*
X1511Y1170D01*
X1491Y1169D02*
X1508Y1169D01*
X1495Y1168D02*
X1503Y1168D01*
X1494Y1137D02*
X1505Y1137D01*
X1490Y1136D02*
X1509Y1136D01*
X1487Y1135D02*
X1511Y1135D01*
X1485Y1134D02*
X1514Y1134D01*
X1483Y1133D02*
X1516Y1133D01*
X1481Y1132D02*
X1517Y1132D01*
X1479Y1131D02*
X1519Y1131D01*
X1478Y1130D02*
X1520Y1130D01*
X1477Y1129D02*
X1522Y1129D01*
X1476Y1128D02*
X1523Y1128D01*
X1475Y1127D02*
X1524Y1127D01*
X1474Y1126D02*
X1525Y1126D01*
X1473Y1125D02*
X1525Y1125D01*
X1472Y1124D02*
X1526Y1124D01*
X1471Y1123D02*
X1527Y1123D01*
X1471Y1122D02*
X1528Y1122D01*
X1470Y1121D02*
X1528Y1121D01*
X1469Y1120D02*
X1529Y1120D01*
X1469Y1119D02*
X1529Y1119D01*
X1468Y1118D02*
X1530Y1118D01*
X1468Y1117D02*
X1494Y1117D01*
X1504Y1117D02*
X1530Y1117D01*
X1467Y1116D02*
X1492Y1116D01*
X1507Y1116D02*
X1531Y1116D01*
X1467Y1115D02*
X1490Y1115D01*
X1508Y1115D02*
X1531Y1115D01*
X1467Y1114D02*
X1489Y1114D01*
X1509Y1114D02*
X1531Y1114D01*
X1466Y1113D02*
X1488Y1113D01*
X1510Y1113D02*
X1532Y1113D01*
X1466Y1112D02*
X1487Y1112D01*
X1511Y1112D02*
X1532Y1112D01*
X1466Y1111D02*
X1486Y1111D01*
X1512Y1111D02*
X1532Y1111D01*
X1466Y1110D02*
X1485Y1110D01*
X1513Y1110D02*
X1533Y1110D01*
X1465Y1109D02*
X1485Y1109D01*
X1513Y1109D02*
X1533Y1109D01*
X1465Y1108D02*
X1484Y1108D01*
X1514Y1108D02*
X1533Y1108D01*
X1465Y1107D02*
X1484Y1107D01*
X1514Y1107D02*
X1533Y1107D01*
X1465Y1106D02*
X1484Y1106D01*
X1514Y1106D02*
X1533Y1106D01*
X1465Y1105D02*
X1484Y1105D01*
X1514Y1105D02*
X1533Y1105D01*
X1465Y1104D02*
X1484Y1104D01*
X1515Y1104D02*
X1534Y1104D01*
X1465Y1103D02*
X1484Y1103D01*
X1515Y1103D02*
X1534Y1103D01*
X1465Y1102D02*
X1484Y1102D01*
X1515Y1102D02*
X1534Y1102D01*
X1465Y1101D02*
X1484Y1101D01*
X1514Y1101D02*
X1533Y1101D01*
X1465Y1100D02*
X1484Y1100D01*
X1514Y1100D02*
X1533Y1100D01*
X1465Y1099D02*
X1484Y1099D01*
X1514Y1099D02*
X1533Y1099D01*
X1465Y1098D02*
X1484Y1098D01*
X1514Y1098D02*
X1533Y1098D01*
X1465Y1097D02*
X1485Y1097D01*
X1514Y1097D02*
X1533Y1097D01*
X1465Y1096D02*
X1485Y1096D01*
X1513Y1096D02*
X1533Y1096D01*
X1466Y1095D02*
X1486Y1095D01*
X1513Y1095D02*
X1533Y1095D01*
X1466Y1094D02*
X1486Y1094D01*
X1512Y1094D02*
X1532Y1094D01*
X1466Y1093D02*
X1487Y1093D01*
X1511Y1093D02*
X1532Y1093D01*
X1466Y1092D02*
X1488Y1092D01*
X1510Y1092D02*
X1532Y1092D01*
X1467Y1091D02*
X1489Y1091D01*
X1509Y1091D02*
X1531Y1091D01*
X1467Y1090D02*
X1490Y1090D01*
X1508Y1090D02*
X1531Y1090D01*
X1468Y1089D02*
X1492Y1089D01*
X1506Y1089D02*
X1531Y1089D01*
X1468Y1088D02*
X1495Y1088D01*
X1503Y1088D02*
X1530Y1088D01*
X294Y1087D02*
X305Y1087D01*
X394Y1087D02*
X405Y1087D01*
X494Y1087D02*
X505Y1087D01*
X594Y1087D02*
X605Y1087D01*
X694Y1087D02*
X705Y1087D01*
X794Y1087D02*
X805Y1087D01*
X1469Y1087D02*
X1530Y1087D01*
X290Y1086D02*
X309Y1086D01*
X390Y1086D02*
X409Y1086D01*
X490Y1086D02*
X509Y1086D01*
X590Y1086D02*
X609Y1086D01*
X690Y1086D02*
X709Y1086D01*
X790Y1086D02*
X809Y1086D01*
X1469Y1086D02*
X1529Y1086D01*
X287Y1085D02*
X312Y1085D01*
X387Y1085D02*
X412Y1085D01*
X487Y1085D02*
X512Y1085D01*
X587Y1085D02*
X612Y1085D01*
X687Y1085D02*
X712Y1085D01*
X787Y1085D02*
X811Y1085D01*
X1470Y1085D02*
X1529Y1085D01*
X285Y1084D02*
X314Y1084D01*
X385Y1084D02*
X414Y1084D01*
X485Y1084D02*
X514Y1084D01*
X585Y1084D02*
X614Y1084D01*
X685Y1084D02*
X714Y1084D01*
X785Y1084D02*
X814Y1084D01*
X1470Y1084D02*
X1528Y1084D01*
X283Y1083D02*
X316Y1083D01*
X383Y1083D02*
X416Y1083D01*
X483Y1083D02*
X516Y1083D01*
X583Y1083D02*
X616Y1083D01*
X683Y1083D02*
X716Y1083D01*
X783Y1083D02*
X816Y1083D01*
X1471Y1083D02*
X1527Y1083D01*
X281Y1082D02*
X318Y1082D01*
X381Y1082D02*
X418Y1082D01*
X481Y1082D02*
X518Y1082D01*
X581Y1082D02*
X618Y1082D01*
X681Y1082D02*
X717Y1082D01*
X781Y1082D02*
X817Y1082D01*
X1471Y1082D02*
X1527Y1082D01*
X279Y1081D02*
X319Y1081D01*
X379Y1081D02*
X419Y1081D01*
X479Y1081D02*
X519Y1081D01*
X579Y1081D02*
X619Y1081D01*
X679Y1081D02*
X719Y1081D01*
X779Y1081D02*
X819Y1081D01*
X1472Y1081D02*
X1526Y1081D01*
X278Y1080D02*
X320Y1080D01*
X378Y1080D02*
X420Y1080D01*
X478Y1080D02*
X520Y1080D01*
X578Y1080D02*
X620Y1080D01*
X678Y1080D02*
X720Y1080D01*
X778Y1080D02*
X820Y1080D01*
X1473Y1080D02*
X1525Y1080D01*
X277Y1079D02*
X322Y1079D01*
X377Y1079D02*
X422Y1079D01*
X477Y1079D02*
X522Y1079D01*
X577Y1079D02*
X622Y1079D01*
X677Y1079D02*
X722Y1079D01*
X777Y1079D02*
X822Y1079D01*
X1474Y1079D02*
X1524Y1079D01*
X276Y1078D02*
X323Y1078D01*
X376Y1078D02*
X423Y1078D01*
X476Y1078D02*
X523Y1078D01*
X576Y1078D02*
X623Y1078D01*
X676Y1078D02*
X723Y1078D01*
X776Y1078D02*
X823Y1078D01*
X1475Y1078D02*
X1523Y1078D01*
X275Y1077D02*
X324Y1077D01*
X375Y1077D02*
X424Y1077D01*
X475Y1077D02*
X524Y1077D01*
X575Y1077D02*
X624Y1077D01*
X675Y1077D02*
X724Y1077D01*
X775Y1077D02*
X824Y1077D01*
X1476Y1077D02*
X1522Y1077D01*
X274Y1076D02*
X325Y1076D01*
X374Y1076D02*
X425Y1076D01*
X474Y1076D02*
X525Y1076D01*
X574Y1076D02*
X625Y1076D01*
X674Y1076D02*
X725Y1076D01*
X774Y1076D02*
X825Y1076D01*
X1477Y1076D02*
X1521Y1076D01*
X273Y1075D02*
X326Y1075D01*
X373Y1075D02*
X426Y1075D01*
X473Y1075D02*
X526Y1075D01*
X573Y1075D02*
X626Y1075D01*
X673Y1075D02*
X726Y1075D01*
X773Y1075D02*
X826Y1075D01*
X1478Y1075D02*
X1520Y1075D01*
X272Y1074D02*
X326Y1074D01*
X372Y1074D02*
X426Y1074D01*
X472Y1074D02*
X526Y1074D01*
X572Y1074D02*
X626Y1074D01*
X672Y1074D02*
X726Y1074D01*
X772Y1074D02*
X826Y1074D01*
X1480Y1074D02*
X1519Y1074D01*
X271Y1073D02*
X327Y1073D01*
X371Y1073D02*
X427Y1073D01*
X471Y1073D02*
X527Y1073D01*
X571Y1073D02*
X627Y1073D01*
X671Y1073D02*
X727Y1073D01*
X771Y1073D02*
X827Y1073D01*
X1481Y1073D02*
X1517Y1073D01*
X271Y1072D02*
X328Y1072D01*
X371Y1072D02*
X428Y1072D01*
X471Y1072D02*
X528Y1072D01*
X571Y1072D02*
X628Y1072D01*
X671Y1072D02*
X728Y1072D01*
X771Y1072D02*
X828Y1072D01*
X1483Y1072D02*
X1515Y1072D01*
X270Y1071D02*
X328Y1071D01*
X370Y1071D02*
X428Y1071D01*
X470Y1071D02*
X528Y1071D01*
X570Y1071D02*
X628Y1071D01*
X670Y1071D02*
X728Y1071D01*
X770Y1071D02*
X828Y1071D01*
X1485Y1071D02*
X1513Y1071D01*
X270Y1070D02*
X329Y1070D01*
X370Y1070D02*
X429Y1070D01*
X470Y1070D02*
X529Y1070D01*
X570Y1070D02*
X629Y1070D01*
X670Y1070D02*
X729Y1070D01*
X770Y1070D02*
X829Y1070D01*
X1488Y1070D02*
X1511Y1070D01*
X269Y1069D02*
X330Y1069D01*
X369Y1069D02*
X430Y1069D01*
X469Y1069D02*
X529Y1069D01*
X569Y1069D02*
X629Y1069D01*
X669Y1069D02*
X729Y1069D01*
X769Y1069D02*
X829Y1069D01*
X1491Y1069D02*
X1508Y1069D01*
X269Y1068D02*
X330Y1068D01*
X369Y1068D02*
X430Y1068D01*
X469Y1068D02*
X530Y1068D01*
X569Y1068D02*
X630Y1068D01*
X668Y1068D02*
X730Y1068D01*
X768Y1068D02*
X830Y1068D01*
X1495Y1068D02*
X1503Y1068D01*
X268Y1067D02*
X294Y1067D01*
X304Y1067D02*
X330Y1067D01*
X368Y1067D02*
X394Y1067D01*
X404Y1067D02*
X430Y1067D01*
X468Y1067D02*
X494Y1067D01*
X504Y1067D02*
X530Y1067D01*
X568Y1067D02*
X594Y1067D01*
X604Y1067D02*
X630Y1067D01*
X668Y1067D02*
X694Y1067D01*
X704Y1067D02*
X730Y1067D01*
X768Y1067D02*
X794Y1067D01*
X804Y1067D02*
X830Y1067D01*
X268Y1066D02*
X292Y1066D01*
X307Y1066D02*
X331Y1066D01*
X368Y1066D02*
X392Y1066D01*
X407Y1066D02*
X431Y1066D01*
X468Y1066D02*
X492Y1066D01*
X507Y1066D02*
X531Y1066D01*
X568Y1066D02*
X592Y1066D01*
X607Y1066D02*
X631Y1066D01*
X668Y1066D02*
X692Y1066D01*
X707Y1066D02*
X731Y1066D01*
X768Y1066D02*
X792Y1066D01*
X807Y1066D02*
X831Y1066D01*
X267Y1065D02*
X290Y1065D01*
X308Y1065D02*
X331Y1065D01*
X367Y1065D02*
X390Y1065D01*
X408Y1065D02*
X431Y1065D01*
X467Y1065D02*
X490Y1065D01*
X508Y1065D02*
X531Y1065D01*
X567Y1065D02*
X590Y1065D01*
X608Y1065D02*
X631Y1065D01*
X667Y1065D02*
X690Y1065D01*
X708Y1065D02*
X731Y1065D01*
X767Y1065D02*
X790Y1065D01*
X808Y1065D02*
X831Y1065D01*
X267Y1064D02*
X289Y1064D01*
X310Y1064D02*
X332Y1064D01*
X367Y1064D02*
X389Y1064D01*
X410Y1064D02*
X432Y1064D01*
X467Y1064D02*
X489Y1064D01*
X509Y1064D02*
X532Y1064D01*
X567Y1064D02*
X589Y1064D01*
X609Y1064D02*
X632Y1064D01*
X667Y1064D02*
X689Y1064D01*
X709Y1064D02*
X732Y1064D01*
X767Y1064D02*
X789Y1064D01*
X809Y1064D02*
X832Y1064D01*
X267Y1063D02*
X288Y1063D01*
X311Y1063D02*
X332Y1063D01*
X367Y1063D02*
X388Y1063D01*
X411Y1063D02*
X432Y1063D01*
X466Y1063D02*
X488Y1063D01*
X511Y1063D02*
X532Y1063D01*
X566Y1063D02*
X588Y1063D01*
X611Y1063D02*
X632Y1063D01*
X666Y1063D02*
X688Y1063D01*
X711Y1063D02*
X732Y1063D01*
X766Y1063D02*
X788Y1063D01*
X811Y1063D02*
X832Y1063D01*
X266Y1062D02*
X287Y1062D01*
X311Y1062D02*
X332Y1062D01*
X366Y1062D02*
X387Y1062D01*
X411Y1062D02*
X432Y1062D01*
X466Y1062D02*
X487Y1062D01*
X511Y1062D02*
X532Y1062D01*
X566Y1062D02*
X587Y1062D01*
X611Y1062D02*
X632Y1062D01*
X666Y1062D02*
X687Y1062D01*
X711Y1062D02*
X732Y1062D01*
X766Y1062D02*
X787Y1062D01*
X811Y1062D02*
X832Y1062D01*
X266Y1061D02*
X286Y1061D01*
X312Y1061D02*
X333Y1061D01*
X366Y1061D02*
X386Y1061D01*
X412Y1061D02*
X433Y1061D01*
X466Y1061D02*
X486Y1061D01*
X512Y1061D02*
X533Y1061D01*
X566Y1061D02*
X586Y1061D01*
X612Y1061D02*
X633Y1061D01*
X666Y1061D02*
X686Y1061D01*
X712Y1061D02*
X733Y1061D01*
X766Y1061D02*
X786Y1061D01*
X812Y1061D02*
X833Y1061D01*
X266Y1060D02*
X286Y1060D01*
X313Y1060D02*
X333Y1060D01*
X366Y1060D02*
X386Y1060D01*
X413Y1060D02*
X433Y1060D01*
X466Y1060D02*
X486Y1060D01*
X513Y1060D02*
X533Y1060D01*
X566Y1060D02*
X586Y1060D01*
X613Y1060D02*
X633Y1060D01*
X666Y1060D02*
X686Y1060D01*
X713Y1060D02*
X733Y1060D01*
X766Y1060D02*
X786Y1060D01*
X813Y1060D02*
X833Y1060D01*
X265Y1059D02*
X285Y1059D01*
X314Y1059D02*
X333Y1059D01*
X365Y1059D02*
X385Y1059D01*
X413Y1059D02*
X433Y1059D01*
X465Y1059D02*
X485Y1059D01*
X513Y1059D02*
X533Y1059D01*
X565Y1059D02*
X585Y1059D01*
X613Y1059D02*
X633Y1059D01*
X665Y1059D02*
X685Y1059D01*
X713Y1059D02*
X733Y1059D01*
X765Y1059D02*
X785Y1059D01*
X813Y1059D02*
X833Y1059D01*
X265Y1058D02*
X285Y1058D01*
X314Y1058D02*
X333Y1058D01*
X365Y1058D02*
X385Y1058D01*
X414Y1058D02*
X433Y1058D01*
X465Y1058D02*
X485Y1058D01*
X514Y1058D02*
X533Y1058D01*
X565Y1058D02*
X585Y1058D01*
X614Y1058D02*
X633Y1058D01*
X665Y1058D02*
X685Y1058D01*
X714Y1058D02*
X733Y1058D01*
X765Y1058D02*
X785Y1058D01*
X814Y1058D02*
X833Y1058D01*
X265Y1057D02*
X284Y1057D01*
X314Y1057D02*
X333Y1057D01*
X365Y1057D02*
X384Y1057D01*
X414Y1057D02*
X433Y1057D01*
X465Y1057D02*
X484Y1057D01*
X514Y1057D02*
X533Y1057D01*
X565Y1057D02*
X584Y1057D01*
X614Y1057D02*
X633Y1057D01*
X665Y1057D02*
X684Y1057D01*
X714Y1057D02*
X733Y1057D01*
X765Y1057D02*
X784Y1057D01*
X814Y1057D02*
X833Y1057D01*
X265Y1056D02*
X284Y1056D01*
X314Y1056D02*
X334Y1056D01*
X365Y1056D02*
X384Y1056D01*
X414Y1056D02*
X434Y1056D01*
X465Y1056D02*
X484Y1056D01*
X514Y1056D02*
X534Y1056D01*
X565Y1056D02*
X584Y1056D01*
X614Y1056D02*
X634Y1056D01*
X665Y1056D02*
X684Y1056D01*
X714Y1056D02*
X734Y1056D01*
X765Y1056D02*
X784Y1056D01*
X814Y1056D02*
X833Y1056D01*
X265Y1055D02*
X284Y1055D01*
X315Y1055D02*
X334Y1055D01*
X365Y1055D02*
X384Y1055D01*
X415Y1055D02*
X434Y1055D01*
X465Y1055D02*
X484Y1055D01*
X515Y1055D02*
X534Y1055D01*
X565Y1055D02*
X584Y1055D01*
X615Y1055D02*
X634Y1055D01*
X665Y1055D02*
X684Y1055D01*
X715Y1055D02*
X734Y1055D01*
X765Y1055D02*
X784Y1055D01*
X815Y1055D02*
X834Y1055D01*
X265Y1054D02*
X284Y1054D01*
X315Y1054D02*
X334Y1054D01*
X365Y1054D02*
X384Y1054D01*
X415Y1054D02*
X434Y1054D01*
X465Y1054D02*
X484Y1054D01*
X515Y1054D02*
X534Y1054D01*
X565Y1054D02*
X584Y1054D01*
X615Y1054D02*
X634Y1054D01*
X665Y1054D02*
X684Y1054D01*
X715Y1054D02*
X734Y1054D01*
X765Y1054D02*
X784Y1054D01*
X815Y1054D02*
X834Y1054D01*
X265Y1053D02*
X284Y1053D01*
X315Y1053D02*
X334Y1053D01*
X365Y1053D02*
X384Y1053D01*
X415Y1053D02*
X434Y1053D01*
X465Y1053D02*
X484Y1053D01*
X515Y1053D02*
X534Y1053D01*
X565Y1053D02*
X584Y1053D01*
X615Y1053D02*
X634Y1053D01*
X665Y1053D02*
X684Y1053D01*
X715Y1053D02*
X734Y1053D01*
X765Y1053D02*
X784Y1053D01*
X815Y1053D02*
X834Y1053D01*
X265Y1052D02*
X284Y1052D01*
X315Y1052D02*
X334Y1052D01*
X365Y1052D02*
X384Y1052D01*
X415Y1052D02*
X434Y1052D01*
X465Y1052D02*
X484Y1052D01*
X515Y1052D02*
X534Y1052D01*
X565Y1052D02*
X584Y1052D01*
X615Y1052D02*
X634Y1052D01*
X665Y1052D02*
X684Y1052D01*
X715Y1052D02*
X734Y1052D01*
X765Y1052D02*
X784Y1052D01*
X815Y1052D02*
X834Y1052D01*
X265Y1051D02*
X284Y1051D01*
X315Y1051D02*
X334Y1051D01*
X365Y1051D02*
X384Y1051D01*
X415Y1051D02*
X434Y1051D01*
X465Y1051D02*
X484Y1051D01*
X515Y1051D02*
X534Y1051D01*
X565Y1051D02*
X584Y1051D01*
X615Y1051D02*
X634Y1051D01*
X665Y1051D02*
X684Y1051D01*
X715Y1051D02*
X734Y1051D01*
X765Y1051D02*
X784Y1051D01*
X815Y1051D02*
X834Y1051D01*
X265Y1050D02*
X284Y1050D01*
X315Y1050D02*
X334Y1050D01*
X365Y1050D02*
X384Y1050D01*
X415Y1050D02*
X434Y1050D01*
X465Y1050D02*
X484Y1050D01*
X515Y1050D02*
X534Y1050D01*
X565Y1050D02*
X584Y1050D01*
X615Y1050D02*
X634Y1050D01*
X665Y1050D02*
X684Y1050D01*
X715Y1050D02*
X734Y1050D01*
X765Y1050D02*
X784Y1050D01*
X815Y1050D02*
X834Y1050D01*
X265Y1049D02*
X284Y1049D01*
X314Y1049D02*
X334Y1049D01*
X365Y1049D02*
X384Y1049D01*
X414Y1049D02*
X434Y1049D01*
X465Y1049D02*
X484Y1049D01*
X514Y1049D02*
X533Y1049D01*
X565Y1049D02*
X584Y1049D01*
X614Y1049D02*
X633Y1049D01*
X665Y1049D02*
X684Y1049D01*
X714Y1049D02*
X733Y1049D01*
X765Y1049D02*
X784Y1049D01*
X814Y1049D02*
X833Y1049D01*
X265Y1048D02*
X284Y1048D01*
X314Y1048D02*
X333Y1048D01*
X365Y1048D02*
X384Y1048D01*
X414Y1048D02*
X433Y1048D01*
X465Y1048D02*
X484Y1048D01*
X514Y1048D02*
X533Y1048D01*
X565Y1048D02*
X584Y1048D01*
X614Y1048D02*
X633Y1048D01*
X665Y1048D02*
X684Y1048D01*
X714Y1048D02*
X733Y1048D01*
X765Y1048D02*
X784Y1048D01*
X814Y1048D02*
X833Y1048D01*
X265Y1047D02*
X285Y1047D01*
X314Y1047D02*
X333Y1047D01*
X365Y1047D02*
X385Y1047D01*
X414Y1047D02*
X433Y1047D01*
X465Y1047D02*
X485Y1047D01*
X514Y1047D02*
X533Y1047D01*
X565Y1047D02*
X585Y1047D01*
X614Y1047D02*
X633Y1047D01*
X665Y1047D02*
X685Y1047D01*
X714Y1047D02*
X733Y1047D01*
X765Y1047D02*
X785Y1047D01*
X814Y1047D02*
X833Y1047D01*
X266Y1046D02*
X285Y1046D01*
X313Y1046D02*
X333Y1046D01*
X366Y1046D02*
X385Y1046D01*
X413Y1046D02*
X433Y1046D01*
X465Y1046D02*
X485Y1046D01*
X513Y1046D02*
X533Y1046D01*
X565Y1046D02*
X585Y1046D01*
X613Y1046D02*
X633Y1046D01*
X665Y1046D02*
X685Y1046D01*
X713Y1046D02*
X733Y1046D01*
X765Y1046D02*
X785Y1046D01*
X813Y1046D02*
X833Y1046D01*
X266Y1045D02*
X286Y1045D01*
X313Y1045D02*
X333Y1045D01*
X366Y1045D02*
X386Y1045D01*
X413Y1045D02*
X433Y1045D01*
X466Y1045D02*
X486Y1045D01*
X513Y1045D02*
X533Y1045D01*
X566Y1045D02*
X586Y1045D01*
X613Y1045D02*
X633Y1045D01*
X666Y1045D02*
X686Y1045D01*
X713Y1045D02*
X733Y1045D01*
X766Y1045D02*
X786Y1045D01*
X813Y1045D02*
X833Y1045D01*
X266Y1044D02*
X286Y1044D01*
X312Y1044D02*
X332Y1044D01*
X366Y1044D02*
X386Y1044D01*
X412Y1044D02*
X432Y1044D01*
X466Y1044D02*
X486Y1044D01*
X512Y1044D02*
X532Y1044D01*
X566Y1044D02*
X586Y1044D01*
X612Y1044D02*
X632Y1044D01*
X666Y1044D02*
X686Y1044D01*
X712Y1044D02*
X732Y1044D01*
X766Y1044D02*
X786Y1044D01*
X812Y1044D02*
X832Y1044D01*
X266Y1043D02*
X287Y1043D01*
X311Y1043D02*
X332Y1043D01*
X366Y1043D02*
X387Y1043D01*
X411Y1043D02*
X432Y1043D01*
X466Y1043D02*
X487Y1043D01*
X511Y1043D02*
X532Y1043D01*
X566Y1043D02*
X587Y1043D01*
X611Y1043D02*
X632Y1043D01*
X666Y1043D02*
X687Y1043D01*
X711Y1043D02*
X732Y1043D01*
X766Y1043D02*
X787Y1043D01*
X811Y1043D02*
X832Y1043D01*
X267Y1042D02*
X288Y1042D01*
X310Y1042D02*
X332Y1042D01*
X367Y1042D02*
X388Y1042D01*
X410Y1042D02*
X432Y1042D01*
X467Y1042D02*
X488Y1042D01*
X510Y1042D02*
X532Y1042D01*
X567Y1042D02*
X588Y1042D01*
X610Y1042D02*
X632Y1042D01*
X667Y1042D02*
X688Y1042D01*
X710Y1042D02*
X732Y1042D01*
X767Y1042D02*
X788Y1042D01*
X810Y1042D02*
X832Y1042D01*
X267Y1041D02*
X289Y1041D01*
X309Y1041D02*
X332Y1041D01*
X367Y1041D02*
X389Y1041D01*
X409Y1041D02*
X432Y1041D01*
X467Y1041D02*
X489Y1041D01*
X509Y1041D02*
X532Y1041D01*
X567Y1041D02*
X589Y1041D01*
X609Y1041D02*
X631Y1041D01*
X667Y1041D02*
X689Y1041D01*
X709Y1041D02*
X731Y1041D01*
X767Y1041D02*
X789Y1041D01*
X809Y1041D02*
X831Y1041D01*
X267Y1040D02*
X291Y1040D01*
X308Y1040D02*
X331Y1040D01*
X367Y1040D02*
X391Y1040D01*
X408Y1040D02*
X431Y1040D01*
X467Y1040D02*
X491Y1040D01*
X508Y1040D02*
X531Y1040D01*
X567Y1040D02*
X591Y1040D01*
X608Y1040D02*
X631Y1040D01*
X667Y1040D02*
X691Y1040D01*
X708Y1040D02*
X731Y1040D01*
X767Y1040D02*
X790Y1040D01*
X808Y1040D02*
X831Y1040D01*
X268Y1039D02*
X292Y1039D01*
X306Y1039D02*
X331Y1039D01*
X368Y1039D02*
X392Y1039D01*
X406Y1039D02*
X431Y1039D01*
X468Y1039D02*
X492Y1039D01*
X506Y1039D02*
X531Y1039D01*
X568Y1039D02*
X592Y1039D01*
X606Y1039D02*
X631Y1039D01*
X668Y1039D02*
X692Y1039D01*
X706Y1039D02*
X731Y1039D01*
X768Y1039D02*
X792Y1039D01*
X806Y1039D02*
X831Y1039D01*
X268Y1038D02*
X295Y1038D01*
X303Y1038D02*
X330Y1038D01*
X368Y1038D02*
X395Y1038D01*
X403Y1038D02*
X430Y1038D01*
X468Y1038D02*
X495Y1038D01*
X503Y1038D02*
X530Y1038D01*
X568Y1038D02*
X595Y1038D01*
X603Y1038D02*
X630Y1038D01*
X668Y1038D02*
X695Y1038D01*
X703Y1038D02*
X730Y1038D01*
X768Y1038D02*
X795Y1038D01*
X803Y1038D02*
X830Y1038D01*
X269Y1037D02*
X330Y1037D01*
X369Y1037D02*
X430Y1037D01*
X469Y1037D02*
X530Y1037D01*
X569Y1037D02*
X630Y1037D01*
X669Y1037D02*
X730Y1037D01*
X769Y1037D02*
X830Y1037D01*
X1493Y1037D02*
X1505Y1037D01*
X269Y1036D02*
X329Y1036D01*
X369Y1036D02*
X429Y1036D01*
X469Y1036D02*
X529Y1036D01*
X569Y1036D02*
X629Y1036D01*
X669Y1036D02*
X729Y1036D01*
X769Y1036D02*
X829Y1036D01*
X1490Y1036D02*
X1509Y1036D01*
X270Y1035D02*
X329Y1035D01*
X370Y1035D02*
X429Y1035D01*
X470Y1035D02*
X529Y1035D01*
X570Y1035D02*
X629Y1035D01*
X670Y1035D02*
X729Y1035D01*
X770Y1035D02*
X829Y1035D01*
X1487Y1035D02*
X1511Y1035D01*
X270Y1034D02*
X328Y1034D01*
X370Y1034D02*
X428Y1034D01*
X470Y1034D02*
X528Y1034D01*
X570Y1034D02*
X628Y1034D01*
X670Y1034D02*
X728Y1034D01*
X770Y1034D02*
X828Y1034D01*
X1485Y1034D02*
X1514Y1034D01*
X271Y1033D02*
X328Y1033D01*
X371Y1033D02*
X428Y1033D01*
X471Y1033D02*
X528Y1033D01*
X571Y1033D02*
X628Y1033D01*
X671Y1033D02*
X728Y1033D01*
X771Y1033D02*
X828Y1033D01*
X1483Y1033D02*
X1516Y1033D01*
X272Y1032D02*
X327Y1032D01*
X372Y1032D02*
X427Y1032D01*
X472Y1032D02*
X527Y1032D01*
X572Y1032D02*
X627Y1032D01*
X672Y1032D02*
X727Y1032D01*
X772Y1032D02*
X827Y1032D01*
X1481Y1032D02*
X1517Y1032D01*
X272Y1031D02*
X326Y1031D01*
X372Y1031D02*
X426Y1031D01*
X472Y1031D02*
X526Y1031D01*
X572Y1031D02*
X626Y1031D01*
X672Y1031D02*
X726Y1031D01*
X772Y1031D02*
X826Y1031D01*
X1479Y1031D02*
X1519Y1031D01*
X273Y1030D02*
X325Y1030D01*
X373Y1030D02*
X425Y1030D01*
X473Y1030D02*
X525Y1030D01*
X573Y1030D02*
X625Y1030D01*
X673Y1030D02*
X725Y1030D01*
X773Y1030D02*
X825Y1030D01*
X1478Y1030D02*
X1520Y1030D01*
X274Y1029D02*
X324Y1029D01*
X374Y1029D02*
X424Y1029D01*
X474Y1029D02*
X524Y1029D01*
X574Y1029D02*
X624Y1029D01*
X674Y1029D02*
X724Y1029D01*
X774Y1029D02*
X824Y1029D01*
X1477Y1029D02*
X1522Y1029D01*
X275Y1028D02*
X324Y1028D01*
X375Y1028D02*
X424Y1028D01*
X475Y1028D02*
X524Y1028D01*
X575Y1028D02*
X624Y1028D01*
X675Y1028D02*
X724Y1028D01*
X775Y1028D02*
X824Y1028D01*
X1476Y1028D02*
X1523Y1028D01*
X276Y1027D02*
X323Y1027D01*
X376Y1027D02*
X422Y1027D01*
X476Y1027D02*
X522Y1027D01*
X576Y1027D02*
X622Y1027D01*
X676Y1027D02*
X722Y1027D01*
X776Y1027D02*
X822Y1027D01*
X1474Y1027D02*
X1524Y1027D01*
X277Y1026D02*
X321Y1026D01*
X377Y1026D02*
X421Y1026D01*
X477Y1026D02*
X521Y1026D01*
X577Y1026D02*
X621Y1026D01*
X677Y1026D02*
X721Y1026D01*
X777Y1026D02*
X821Y1026D01*
X1474Y1026D02*
X1525Y1026D01*
X278Y1025D02*
X320Y1025D01*
X378Y1025D02*
X420Y1025D01*
X478Y1025D02*
X520Y1025D01*
X578Y1025D02*
X620Y1025D01*
X678Y1025D02*
X720Y1025D01*
X778Y1025D02*
X820Y1025D01*
X1473Y1025D02*
X1525Y1025D01*
X280Y1024D02*
X319Y1024D01*
X380Y1024D02*
X419Y1024D01*
X480Y1024D02*
X519Y1024D01*
X580Y1024D02*
X619Y1024D01*
X680Y1024D02*
X719Y1024D01*
X780Y1024D02*
X819Y1024D01*
X1472Y1024D02*
X1526Y1024D01*
X282Y1023D02*
X317Y1023D01*
X381Y1023D02*
X417Y1023D01*
X481Y1023D02*
X517Y1023D01*
X581Y1023D02*
X617Y1023D01*
X681Y1023D02*
X717Y1023D01*
X781Y1023D02*
X817Y1023D01*
X1471Y1023D02*
X1527Y1023D01*
X283Y1022D02*
X315Y1022D01*
X383Y1022D02*
X415Y1022D01*
X483Y1022D02*
X515Y1022D01*
X583Y1022D02*
X615Y1022D01*
X683Y1022D02*
X715Y1022D01*
X783Y1022D02*
X815Y1022D01*
X1471Y1022D02*
X1528Y1022D01*
X285Y1021D02*
X313Y1021D01*
X385Y1021D02*
X413Y1021D01*
X485Y1021D02*
X513Y1021D01*
X585Y1021D02*
X613Y1021D01*
X685Y1021D02*
X713Y1021D01*
X785Y1021D02*
X813Y1021D01*
X1470Y1021D02*
X1528Y1021D01*
X288Y1020D02*
X311Y1020D01*
X388Y1020D02*
X411Y1020D01*
X488Y1020D02*
X511Y1020D01*
X588Y1020D02*
X611Y1020D01*
X688Y1020D02*
X711Y1020D01*
X788Y1020D02*
X811Y1020D01*
X1469Y1020D02*
X1529Y1020D01*
X291Y1019D02*
X308Y1019D01*
X391Y1019D02*
X408Y1019D01*
X491Y1019D02*
X508Y1019D01*
X591Y1019D02*
X608Y1019D01*
X691Y1019D02*
X708Y1019D01*
X791Y1019D02*
X808Y1019D01*
X1469Y1019D02*
X1529Y1019D01*
X296Y1018D02*
X303Y1018D01*
X395Y1018D02*
X403Y1018D01*
X495Y1018D02*
X503Y1018D01*
X595Y1018D02*
X603Y1018D01*
X695Y1018D02*
X703Y1018D01*
X795Y1018D02*
X803Y1018D01*
X1468Y1018D02*
X1530Y1018D01*
X1468Y1017D02*
X1494Y1017D01*
X1504Y1017D02*
X1530Y1017D01*
X1467Y1016D02*
X1492Y1016D01*
X1507Y1016D02*
X1531Y1016D01*
X1467Y1015D02*
X1490Y1015D01*
X1508Y1015D02*
X1531Y1015D01*
X1467Y1014D02*
X1489Y1014D01*
X1509Y1014D02*
X1531Y1014D01*
X1466Y1013D02*
X1488Y1013D01*
X1510Y1013D02*
X1532Y1013D01*
X1466Y1012D02*
X1487Y1012D01*
X1511Y1012D02*
X1532Y1012D01*
X1466Y1011D02*
X1486Y1011D01*
X1512Y1011D02*
X1532Y1011D01*
X1466Y1010D02*
X1485Y1010D01*
X1513Y1010D02*
X1533Y1010D01*
X1465Y1009D02*
X1485Y1009D01*
X1513Y1009D02*
X1533Y1009D01*
X1465Y1008D02*
X1484Y1008D01*
X1514Y1008D02*
X1533Y1008D01*
X1465Y1007D02*
X1484Y1007D01*
X1514Y1007D02*
X1533Y1007D01*
X1465Y1006D02*
X1484Y1006D01*
X1514Y1006D02*
X1533Y1006D01*
X1465Y1005D02*
X1484Y1005D01*
X1514Y1005D02*
X1533Y1005D01*
X1465Y1004D02*
X1484Y1004D01*
X1515Y1004D02*
X1534Y1004D01*
X1465Y1003D02*
X1484Y1003D01*
X1515Y1003D02*
X1534Y1003D01*
X1465Y1002D02*
X1484Y1002D01*
X1515Y1002D02*
X1534Y1002D01*
X1465Y1001D02*
X1484Y1001D01*
X1514Y1001D02*
X1533Y1001D01*
X1465Y1000D02*
X1484Y1000D01*
X1514Y1000D02*
X1533Y1000D01*
X1465Y999D02*
X1484Y999D01*
X1514Y999D02*
X1533Y999D01*
X1465Y998D02*
X1484Y998D01*
X1514Y998D02*
X1533Y998D01*
X1465Y997D02*
X1485Y997D01*
X1514Y997D02*
X1533Y997D01*
X1465Y996D02*
X1485Y996D01*
X1513Y996D02*
X1533Y996D01*
X1466Y995D02*
X1486Y995D01*
X1513Y995D02*
X1533Y995D01*
X1466Y994D02*
X1486Y994D01*
X1512Y994D02*
X1532Y994D01*
X1466Y993D02*
X1487Y993D01*
X1511Y993D02*
X1532Y993D01*
X1466Y992D02*
X1488Y992D01*
X1510Y992D02*
X1532Y992D01*
X1467Y991D02*
X1489Y991D01*
X1509Y991D02*
X1531Y991D01*
X1467Y990D02*
X1490Y990D01*
X1508Y990D02*
X1531Y990D01*
X1468Y989D02*
X1492Y989D01*
X1506Y989D02*
X1531Y989D01*
X1468Y988D02*
X1495Y988D01*
X1503Y988D02*
X1530Y988D01*
X1469Y987D02*
X1530Y987D01*
X1469Y986D02*
X1529Y986D01*
X1470Y985D02*
X1529Y985D01*
X1470Y984D02*
X1528Y984D01*
X1471Y983D02*
X1527Y983D01*
X1471Y982D02*
X1527Y982D01*
X1472Y981D02*
X1526Y981D01*
X1473Y980D02*
X1525Y980D01*
X1474Y979D02*
X1524Y979D01*
X1475Y978D02*
X1523Y978D01*
X1476Y977D02*
X1522Y977D01*
X1477Y976D02*
X1521Y976D01*
X1478Y975D02*
X1520Y975D01*
X1480Y974D02*
X1518Y974D01*
X1481Y973D02*
X1517Y973D01*
X1483Y972D02*
X1515Y972D01*
X1485Y971D02*
X1513Y971D01*
X1488Y970D02*
X1511Y970D01*
X1491Y969D02*
X1508Y969D01*
X1495Y968D02*
X1503Y968D01*
X1493Y937D02*
X1505Y937D01*
X1490Y936D02*
X1509Y936D01*
X1487Y935D02*
X1511Y935D01*
X1484Y934D02*
X1514Y934D01*
X1482Y933D02*
X1516Y933D01*
X1481Y932D02*
X1517Y932D01*
X1479Y931D02*
X1519Y931D01*
X1478Y930D02*
X1520Y930D01*
X1477Y929D02*
X1522Y929D01*
X1475Y928D02*
X1523Y928D01*
X1474Y927D02*
X1524Y927D01*
X1474Y926D02*
X1525Y926D01*
X1473Y925D02*
X1525Y925D01*
X1472Y924D02*
X1526Y924D01*
X1471Y923D02*
X1527Y923D01*
X1471Y922D02*
X1528Y922D01*
X1470Y921D02*
X1528Y921D01*
X1469Y920D02*
X1529Y920D01*
X1469Y919D02*
X1529Y919D01*
X1468Y918D02*
X1530Y918D01*
X1468Y917D02*
X1494Y917D01*
X1504Y917D02*
X1530Y917D01*
X1467Y916D02*
X1492Y916D01*
X1507Y916D02*
X1531Y916D01*
X1467Y915D02*
X1490Y915D01*
X1508Y915D02*
X1531Y915D01*
X1467Y914D02*
X1489Y914D01*
X1509Y914D02*
X1531Y914D01*
X1466Y913D02*
X1488Y913D01*
X1510Y913D02*
X1532Y913D01*
X1466Y912D02*
X1487Y912D01*
X1511Y912D02*
X1532Y912D01*
X1466Y911D02*
X1486Y911D01*
X1512Y911D02*
X1532Y911D01*
X1466Y910D02*
X1485Y910D01*
X1513Y910D02*
X1533Y910D01*
X1465Y909D02*
X1485Y909D01*
X1513Y909D02*
X1533Y909D01*
X1465Y908D02*
X1484Y908D01*
X1514Y908D02*
X1533Y908D01*
X1465Y907D02*
X1484Y907D01*
X1514Y907D02*
X1533Y907D01*
X1465Y906D02*
X1484Y906D01*
X1514Y906D02*
X1533Y906D01*
X1465Y905D02*
X1484Y905D01*
X1514Y905D02*
X1533Y905D01*
X1465Y904D02*
X1484Y904D01*
X1515Y904D02*
X1534Y904D01*
X1465Y903D02*
X1484Y903D01*
X1515Y903D02*
X1534Y903D01*
X1465Y902D02*
X1484Y902D01*
X1515Y902D02*
X1534Y902D01*
X1465Y901D02*
X1484Y901D01*
X1514Y901D02*
X1533Y901D01*
X1465Y900D02*
X1484Y900D01*
X1514Y900D02*
X1533Y900D01*
X1465Y899D02*
X1484Y899D01*
X1514Y899D02*
X1533Y899D01*
X1465Y898D02*
X1484Y898D01*
X1514Y898D02*
X1533Y898D01*
X1465Y897D02*
X1485Y897D01*
X1514Y897D02*
X1533Y897D01*
X1465Y896D02*
X1485Y896D01*
X1513Y896D02*
X1533Y896D01*
X1466Y895D02*
X1486Y895D01*
X1513Y895D02*
X1533Y895D01*
X1466Y894D02*
X1486Y894D01*
X1512Y894D02*
X1532Y894D01*
X1466Y893D02*
X1487Y893D01*
X1511Y893D02*
X1532Y893D01*
X1466Y892D02*
X1488Y892D01*
X1510Y892D02*
X1532Y892D01*
X1467Y891D02*
X1489Y891D01*
X1509Y891D02*
X1531Y891D01*
X1467Y890D02*
X1490Y890D01*
X1508Y890D02*
X1531Y890D01*
X1468Y889D02*
X1492Y889D01*
X1506Y889D02*
X1531Y889D01*
X1468Y888D02*
X1495Y888D01*
X1503Y888D02*
X1530Y888D01*
X1469Y887D02*
X1530Y887D01*
X1469Y886D02*
X1529Y886D01*
X1470Y885D02*
X1529Y885D01*
X1470Y884D02*
X1528Y884D01*
X1471Y883D02*
X1527Y883D01*
X1472Y882D02*
X1527Y882D01*
X1472Y881D02*
X1526Y881D01*
X1473Y880D02*
X1525Y880D01*
X1474Y879D02*
X1524Y879D01*
X1475Y878D02*
X1523Y878D01*
X1476Y877D02*
X1522Y877D01*
X1477Y876D02*
X1521Y876D01*
X1478Y875D02*
X1520Y875D01*
X1480Y874D02*
X1518Y874D01*
X1481Y873D02*
X1517Y873D01*
X1483Y872D02*
X1515Y872D01*
X1485Y871D02*
X1513Y871D01*
X1488Y870D02*
X1511Y870D01*
X1491Y869D02*
X1507Y869D01*
X1495Y868D02*
X1503Y868D01*
X1493Y837D02*
X1505Y837D01*
X1489Y836D02*
X1509Y836D01*
X1487Y835D02*
X1511Y835D01*
X1484Y834D02*
X1514Y834D01*
X1482Y833D02*
X1516Y833D01*
X1481Y832D02*
X1517Y832D01*
X1479Y831D02*
X1519Y831D01*
X1478Y830D02*
X1520Y830D01*
X1477Y829D02*
X1522Y829D01*
X1475Y828D02*
X1523Y828D01*
X1474Y827D02*
X1524Y827D01*
X1474Y826D02*
X1525Y826D01*
X1473Y825D02*
X1525Y825D01*
X1472Y824D02*
X1526Y824D01*
X1471Y823D02*
X1527Y823D01*
X1471Y822D02*
X1528Y822D01*
X1470Y821D02*
X1528Y821D01*
X1469Y820D02*
X1529Y820D01*
X1469Y819D02*
X1529Y819D01*
X1468Y818D02*
X1530Y818D01*
X1468Y817D02*
X1494Y817D01*
X1504Y817D02*
X1530Y817D01*
X1467Y816D02*
X1492Y816D01*
X1507Y816D02*
X1531Y816D01*
X1467Y815D02*
X1490Y815D01*
X1508Y815D02*
X1531Y815D01*
X1467Y814D02*
X1489Y814D01*
X1509Y814D02*
X1532Y814D01*
X1466Y813D02*
X1488Y813D01*
X1510Y813D02*
X1532Y813D01*
X1466Y812D02*
X1487Y812D01*
X1511Y812D02*
X1532Y812D01*
X1466Y811D02*
X1486Y811D01*
X1512Y811D02*
X1532Y811D01*
X1466Y810D02*
X1485Y810D01*
X1513Y810D02*
X1533Y810D01*
X1465Y809D02*
X1485Y809D01*
X1513Y809D02*
X1533Y809D01*
X1465Y808D02*
X1484Y808D01*
X1514Y808D02*
X1533Y808D01*
X1465Y807D02*
X1484Y807D01*
X1514Y807D02*
X1533Y807D01*
X1465Y806D02*
X1484Y806D01*
X1514Y806D02*
X1533Y806D01*
X1465Y805D02*
X1484Y805D01*
X1514Y805D02*
X1533Y805D01*
X1465Y804D02*
X1484Y804D01*
X1515Y804D02*
X1534Y804D01*
X1465Y803D02*
X1484Y803D01*
X1515Y803D02*
X1534Y803D01*
X1465Y802D02*
X1484Y802D01*
X1515Y802D02*
X1534Y802D01*
X1465Y801D02*
X1484Y801D01*
X1514Y801D02*
X1533Y801D01*
X1465Y800D02*
X1484Y800D01*
X1514Y800D02*
X1533Y800D01*
X1465Y799D02*
X1484Y799D01*
X1514Y799D02*
X1533Y799D01*
X1465Y798D02*
X1484Y798D01*
X1514Y798D02*
X1533Y798D01*
X1465Y797D02*
X1485Y797D01*
X1514Y797D02*
X1533Y797D01*
X1465Y796D02*
X1485Y796D01*
X1513Y796D02*
X1533Y796D01*
X1466Y795D02*
X1486Y795D01*
X1513Y795D02*
X1533Y795D01*
X1466Y794D02*
X1486Y794D01*
X1512Y794D02*
X1532Y794D01*
X1466Y793D02*
X1487Y793D01*
X1511Y793D02*
X1532Y793D01*
X1466Y792D02*
X1488Y792D01*
X1510Y792D02*
X1532Y792D01*
X1467Y791D02*
X1489Y791D01*
X1509Y791D02*
X1531Y791D01*
X1467Y790D02*
X1490Y790D01*
X1508Y790D02*
X1531Y790D01*
X1468Y789D02*
X1492Y789D01*
X1506Y789D02*
X1531Y789D01*
X1468Y788D02*
X1495Y788D01*
X1503Y788D02*
X1530Y788D01*
X1469Y787D02*
X1530Y787D01*
X1469Y786D02*
X1529Y786D01*
X1470Y785D02*
X1529Y785D01*
X1470Y784D02*
X1528Y784D01*
X1471Y783D02*
X1527Y783D01*
X1472Y782D02*
X1527Y782D01*
X1472Y781D02*
X1526Y781D01*
X1473Y780D02*
X1525Y780D01*
X1474Y779D02*
X1524Y779D01*
X1475Y778D02*
X1523Y778D01*
X1476Y777D02*
X1522Y777D01*
X1477Y776D02*
X1521Y776D01*
X1478Y775D02*
X1520Y775D01*
X1480Y774D02*
X1518Y774D01*
X1481Y773D02*
X1517Y773D01*
X1483Y772D02*
X1515Y772D01*
X1485Y771D02*
X1513Y771D01*
X1488Y770D02*
X1511Y770D01*
X1491Y769D02*
X1507Y769D01*
X1496Y768D02*
X1503Y768D01*
D02*
G04 End of Copper0*
M02*