G04 MADE WITH FRITZING*
G04 WWW.FRITZING.ORG*
G04 DOUBLE SIDED*
G04 HOLES PLATED*
G04 CONTOUR ON CENTER OF CONTOUR VECTOR*
%ASAXBY*%
%FSLAX23Y23*%
%MOIN*%
%OFA0B0*%
%SFA1.0B1.0*%
%ADD10C,0.078000*%
%ADD11C,0.039370*%
%ADD12C,0.079370*%
%ADD13C,0.065278*%
%ADD14C,0.082000*%
%ADD15C,0.075000*%
%ADD16C,0.070000*%
%ADD17R,0.079370X0.079370*%
%ADD18R,0.082000X0.082000*%
%ADD19C,0.024000*%
%LNCOPPER1*%
G90*
G70*
G54D10*
X1419Y1302D03*
X1419Y1202D03*
X1419Y1102D03*
X1419Y1002D03*
X1419Y902D03*
X1419Y802D03*
X1549Y1302D03*
X1549Y1202D03*
X1549Y1102D03*
X1549Y1002D03*
X1549Y902D03*
X1549Y802D03*
G54D11*
X899Y252D03*
X1399Y252D03*
X1000Y453D03*
G54D12*
X1849Y287D03*
X1849Y484D03*
X1849Y1655D03*
X1849Y1852D03*
G54D13*
X1499Y102D03*
X1599Y102D03*
X1699Y102D03*
X1799Y102D03*
X1899Y102D03*
X1039Y2002D03*
X939Y2002D03*
X839Y2002D03*
X739Y2002D03*
X639Y2002D03*
X539Y2002D03*
X439Y2002D03*
X339Y2002D03*
X239Y2002D03*
X139Y2002D03*
X1899Y2002D03*
X1799Y2002D03*
X1699Y2002D03*
X1599Y2002D03*
X1499Y2002D03*
X1399Y2002D03*
X1299Y2002D03*
X1199Y2002D03*
X599Y102D03*
X499Y102D03*
X699Y102D03*
X799Y102D03*
X899Y102D03*
X999Y102D03*
X1099Y102D03*
X1199Y102D03*
X1399Y102D03*
G54D14*
X899Y752D03*
X899Y652D03*
X899Y552D03*
G54D15*
X1099Y402D03*
X1399Y402D03*
X1249Y902D03*
X1249Y1202D03*
X1249Y1302D03*
X949Y1302D03*
G54D16*
X1099Y1002D03*
X1099Y902D03*
G54D17*
X1849Y287D03*
X1849Y1655D03*
G54D18*
X899Y752D03*
G54D19*
X1263Y1292D02*
X1297Y1267D01*
D02*
X1401Y1208D02*
X1349Y1223D01*
D02*
X1534Y891D02*
X1434Y814D01*
D02*
X1434Y1014D02*
X1534Y1091D01*
D02*
X1799Y902D02*
X1568Y902D01*
D02*
X1914Y587D02*
X1953Y657D01*
D02*
X1338Y583D02*
X1914Y587D01*
D02*
X1948Y767D02*
X1799Y902D01*
D02*
X1953Y657D02*
X1948Y767D01*
D02*
X1113Y413D02*
X1338Y583D01*
D02*
X899Y244D02*
X899Y122D01*
D02*
X1000Y445D02*
X999Y122D01*
D02*
X1399Y244D02*
X1399Y122D01*
G36*
X1318Y1223D02*
X1343Y1248D01*
X1362Y1229D01*
X1337Y1204D01*
X1318Y1223D01*
G37*
D02*
G36*
X1282Y1260D02*
X1307Y1285D01*
X1326Y1265D01*
X1301Y1240D01*
X1282Y1260D01*
G37*
D02*
G04 End of Copper1*
M02*