; NON-PLATED HOLES START AT T1
; THROUGH (PLATED) HOLES START AT T100
M48
INCH
T100C0.015748
T101C0.040278
T102C0.042000
T103C0.038000
T104C0.035000
T105C0.039370
T106C0.030000
%
T100
X009997Y004533
X008988Y002523
X013990Y002516
T101
X016988Y001023
X007987Y001023
X005987Y001023
X013988Y001023
X004387Y020023
X007387Y020023
X009987Y001023
X010987Y001023
X014987Y020023
X010387Y020023
X013988Y020023
X015987Y020023
X002387Y020023
X008987Y001023
X008387Y020023
X005387Y020023
X017988Y020023
X014987Y001023
X011987Y001023
X001387Y020023
X017988Y001023
X006387Y020023
X015987Y001023
X006987Y001023
X003387Y020023
X016988Y020023
X018988Y001023
X018988Y020023
X004987Y001023
X009387Y020023
X011987Y020023
X012988Y020023
T102
X008988Y007523
X008988Y006523
X008988Y005523
T103
X015488Y009023
X014188Y010023
X014188Y013020
X015488Y008023
X015488Y010023
X015488Y013020
X015488Y012023
X014188Y011023
X014188Y008023
X014188Y012023
X014188Y009023
X015488Y011023
T104
X012488Y013023
X012488Y012023
X009488Y013023
X013988Y004023
X012488Y009023
X010988Y004023
T105
X018488Y004841
X018488Y002873
X018488Y018523
X018488Y016554
T106
X006988Y010523
X007988Y010523
X003988Y010523
X010988Y009023
X004988Y010523
X010988Y010024
X005988Y010523
X002988Y010523
T00
M30
