G04 MADE WITH FRITZING*
G04 WWW.FRITZING.ORG*
G04 DOUBLE SIDED*
G04 HOLES PLATED*
G04 CONTOUR ON CENTER OF CONTOUR VECTOR*
%ASAXBY*%
%FSLAX23Y23*%
%MOIN*%
%OFA0B0*%
%SFA1.0B1.0*%
%ADD10C,0.088000*%
%ADD11C,0.049370*%
%ADD12C,0.089370*%
%ADD13C,0.075278*%
%ADD14C,0.092000*%
%ADD15C,0.085000*%
%ADD16C,0.080000*%
%ADD17R,0.089370X0.089370*%
%ADD18R,0.092000X0.092000*%
%ADD19R,0.001000X0.001000*%
%LNMASK0*%
G90*
G70*
G54D10*
X1419Y1302D03*
X1419Y1202D03*
X1419Y1102D03*
X1419Y1002D03*
X1419Y902D03*
X1419Y802D03*
X1549Y1302D03*
X1549Y1202D03*
X1549Y1102D03*
X1549Y1002D03*
X1549Y902D03*
X1549Y802D03*
G54D11*
X899Y252D03*
X1399Y252D03*
X1000Y453D03*
G54D12*
X1849Y287D03*
X1849Y484D03*
X1849Y1655D03*
X1849Y1852D03*
G54D13*
X1499Y102D03*
X1599Y102D03*
X1699Y102D03*
X1799Y102D03*
X1899Y102D03*
X1039Y2002D03*
X939Y2002D03*
X839Y2002D03*
X739Y2002D03*
X639Y2002D03*
X539Y2002D03*
X439Y2002D03*
X339Y2002D03*
X239Y2002D03*
X139Y2002D03*
X1899Y2002D03*
X1799Y2002D03*
X1699Y2002D03*
X1599Y2002D03*
X1499Y2002D03*
X1399Y2002D03*
X1299Y2002D03*
X1199Y2002D03*
X599Y102D03*
X499Y102D03*
X699Y102D03*
X799Y102D03*
X899Y102D03*
X999Y102D03*
X1099Y102D03*
X1199Y102D03*
X1399Y102D03*
G54D14*
X899Y752D03*
X899Y652D03*
X899Y552D03*
G54D15*
X1099Y402D03*
X1399Y402D03*
X1249Y902D03*
X1249Y1202D03*
X1249Y1302D03*
X949Y1302D03*
G54D16*
X1099Y1002D03*
X1099Y902D03*
G54D17*
X1849Y287D03*
X1849Y1655D03*
G54D18*
X899Y752D03*
G54D19*
X293Y1092D02*
X305Y1092D01*
X393Y1092D02*
X405Y1092D01*
X493Y1092D02*
X505Y1092D01*
X593Y1092D02*
X605Y1092D01*
X693Y1092D02*
X705Y1092D01*
X793Y1092D02*
X805Y1092D01*
X289Y1091D02*
X310Y1091D01*
X389Y1091D02*
X410Y1091D01*
X489Y1091D02*
X510Y1091D01*
X589Y1091D02*
X610Y1091D01*
X689Y1091D02*
X710Y1091D01*
X789Y1091D02*
X810Y1091D01*
X286Y1090D02*
X313Y1090D01*
X386Y1090D02*
X413Y1090D01*
X486Y1090D02*
X513Y1090D01*
X586Y1090D02*
X613Y1090D01*
X686Y1090D02*
X713Y1090D01*
X786Y1090D02*
X813Y1090D01*
X283Y1089D02*
X315Y1089D01*
X383Y1089D02*
X415Y1089D01*
X483Y1089D02*
X515Y1089D01*
X583Y1089D02*
X615Y1089D01*
X683Y1089D02*
X715Y1089D01*
X783Y1089D02*
X815Y1089D01*
X281Y1088D02*
X317Y1088D01*
X381Y1088D02*
X417Y1088D01*
X481Y1088D02*
X517Y1088D01*
X581Y1088D02*
X617Y1088D01*
X681Y1088D02*
X717Y1088D01*
X781Y1088D02*
X817Y1088D01*
X279Y1087D02*
X319Y1087D01*
X379Y1087D02*
X419Y1087D01*
X479Y1087D02*
X519Y1087D01*
X579Y1087D02*
X619Y1087D01*
X679Y1087D02*
X719Y1087D01*
X779Y1087D02*
X819Y1087D01*
X278Y1086D02*
X321Y1086D01*
X378Y1086D02*
X421Y1086D01*
X478Y1086D02*
X521Y1086D01*
X578Y1086D02*
X621Y1086D01*
X678Y1086D02*
X721Y1086D01*
X778Y1086D02*
X821Y1086D01*
X276Y1085D02*
X322Y1085D01*
X376Y1085D02*
X422Y1085D01*
X476Y1085D02*
X522Y1085D01*
X576Y1085D02*
X622Y1085D01*
X676Y1085D02*
X722Y1085D01*
X776Y1085D02*
X822Y1085D01*
X275Y1084D02*
X323Y1084D01*
X375Y1084D02*
X423Y1084D01*
X475Y1084D02*
X523Y1084D01*
X575Y1084D02*
X623Y1084D01*
X675Y1084D02*
X723Y1084D01*
X775Y1084D02*
X823Y1084D01*
X274Y1083D02*
X325Y1083D01*
X374Y1083D02*
X425Y1083D01*
X474Y1083D02*
X525Y1083D01*
X574Y1083D02*
X625Y1083D01*
X674Y1083D02*
X725Y1083D01*
X774Y1083D02*
X825Y1083D01*
X273Y1082D02*
X326Y1082D01*
X373Y1082D02*
X426Y1082D01*
X473Y1082D02*
X526Y1082D01*
X573Y1082D02*
X626Y1082D01*
X673Y1082D02*
X726Y1082D01*
X773Y1082D02*
X826Y1082D01*
X272Y1081D02*
X327Y1081D01*
X372Y1081D02*
X427Y1081D01*
X472Y1081D02*
X527Y1081D01*
X572Y1081D02*
X627Y1081D01*
X672Y1081D02*
X727Y1081D01*
X772Y1081D02*
X827Y1081D01*
X271Y1080D02*
X328Y1080D01*
X371Y1080D02*
X428Y1080D01*
X471Y1080D02*
X528Y1080D01*
X571Y1080D02*
X628Y1080D01*
X671Y1080D02*
X728Y1080D01*
X771Y1080D02*
X828Y1080D01*
X270Y1079D02*
X329Y1079D01*
X370Y1079D02*
X429Y1079D01*
X470Y1079D02*
X529Y1079D01*
X570Y1079D02*
X629Y1079D01*
X670Y1079D02*
X729Y1079D01*
X770Y1079D02*
X829Y1079D01*
X269Y1078D02*
X330Y1078D01*
X369Y1078D02*
X430Y1078D01*
X469Y1078D02*
X530Y1078D01*
X569Y1078D02*
X630Y1078D01*
X669Y1078D02*
X730Y1078D01*
X769Y1078D02*
X830Y1078D01*
X268Y1077D02*
X330Y1077D01*
X368Y1077D02*
X430Y1077D01*
X468Y1077D02*
X530Y1077D01*
X568Y1077D02*
X630Y1077D01*
X668Y1077D02*
X730Y1077D01*
X768Y1077D02*
X830Y1077D01*
X267Y1076D02*
X331Y1076D01*
X367Y1076D02*
X431Y1076D01*
X467Y1076D02*
X531Y1076D01*
X567Y1076D02*
X631Y1076D01*
X667Y1076D02*
X731Y1076D01*
X767Y1076D02*
X831Y1076D01*
X267Y1075D02*
X332Y1075D01*
X367Y1075D02*
X432Y1075D01*
X467Y1075D02*
X532Y1075D01*
X567Y1075D02*
X632Y1075D01*
X667Y1075D02*
X732Y1075D01*
X767Y1075D02*
X832Y1075D01*
X266Y1074D02*
X332Y1074D01*
X366Y1074D02*
X432Y1074D01*
X466Y1074D02*
X532Y1074D01*
X566Y1074D02*
X632Y1074D01*
X666Y1074D02*
X732Y1074D01*
X766Y1074D02*
X832Y1074D01*
X265Y1073D02*
X333Y1073D01*
X365Y1073D02*
X433Y1073D01*
X465Y1073D02*
X533Y1073D01*
X565Y1073D02*
X633Y1073D01*
X665Y1073D02*
X733Y1073D01*
X765Y1073D02*
X833Y1073D01*
X265Y1072D02*
X334Y1072D01*
X365Y1072D02*
X434Y1072D01*
X465Y1072D02*
X534Y1072D01*
X565Y1072D02*
X634Y1072D01*
X665Y1072D02*
X734Y1072D01*
X765Y1072D02*
X834Y1072D01*
X264Y1071D02*
X334Y1071D01*
X364Y1071D02*
X434Y1071D01*
X464Y1071D02*
X534Y1071D01*
X564Y1071D02*
X634Y1071D01*
X664Y1071D02*
X734Y1071D01*
X764Y1071D02*
X834Y1071D01*
X264Y1070D02*
X335Y1070D01*
X364Y1070D02*
X435Y1070D01*
X464Y1070D02*
X535Y1070D01*
X564Y1070D02*
X635Y1070D01*
X664Y1070D02*
X735Y1070D01*
X764Y1070D02*
X835Y1070D01*
X263Y1069D02*
X335Y1069D01*
X363Y1069D02*
X435Y1069D01*
X463Y1069D02*
X535Y1069D01*
X563Y1069D02*
X635Y1069D01*
X663Y1069D02*
X735Y1069D01*
X763Y1069D02*
X835Y1069D01*
X263Y1068D02*
X336Y1068D01*
X363Y1068D02*
X436Y1068D01*
X463Y1068D02*
X536Y1068D01*
X563Y1068D02*
X636Y1068D01*
X663Y1068D02*
X736Y1068D01*
X763Y1068D02*
X836Y1068D01*
X262Y1067D02*
X336Y1067D01*
X362Y1067D02*
X436Y1067D01*
X462Y1067D02*
X536Y1067D01*
X562Y1067D02*
X636Y1067D01*
X662Y1067D02*
X736Y1067D01*
X762Y1067D02*
X836Y1067D01*
X262Y1066D02*
X336Y1066D01*
X362Y1066D02*
X436Y1066D01*
X462Y1066D02*
X536Y1066D01*
X562Y1066D02*
X636Y1066D01*
X662Y1066D02*
X736Y1066D01*
X762Y1066D02*
X836Y1066D01*
X262Y1065D02*
X337Y1065D01*
X362Y1065D02*
X437Y1065D01*
X462Y1065D02*
X537Y1065D01*
X562Y1065D02*
X637Y1065D01*
X662Y1065D02*
X737Y1065D01*
X762Y1065D02*
X837Y1065D01*
X261Y1064D02*
X337Y1064D01*
X361Y1064D02*
X437Y1064D01*
X461Y1064D02*
X537Y1064D01*
X561Y1064D02*
X637Y1064D01*
X661Y1064D02*
X737Y1064D01*
X761Y1064D02*
X837Y1064D01*
X261Y1063D02*
X337Y1063D01*
X361Y1063D02*
X437Y1063D01*
X461Y1063D02*
X537Y1063D01*
X561Y1063D02*
X637Y1063D01*
X661Y1063D02*
X737Y1063D01*
X761Y1063D02*
X837Y1063D01*
X261Y1062D02*
X338Y1062D01*
X361Y1062D02*
X438Y1062D01*
X461Y1062D02*
X538Y1062D01*
X561Y1062D02*
X638Y1062D01*
X661Y1062D02*
X737Y1062D01*
X761Y1062D02*
X837Y1062D01*
X261Y1061D02*
X338Y1061D01*
X361Y1061D02*
X438Y1061D01*
X461Y1061D02*
X538Y1061D01*
X561Y1061D02*
X638Y1061D01*
X661Y1061D02*
X738Y1061D01*
X761Y1061D02*
X838Y1061D01*
X261Y1060D02*
X338Y1060D01*
X361Y1060D02*
X438Y1060D01*
X461Y1060D02*
X538Y1060D01*
X561Y1060D02*
X638Y1060D01*
X660Y1060D02*
X738Y1060D01*
X760Y1060D02*
X838Y1060D01*
X260Y1059D02*
X338Y1059D01*
X360Y1059D02*
X438Y1059D01*
X460Y1059D02*
X538Y1059D01*
X560Y1059D02*
X638Y1059D01*
X660Y1059D02*
X738Y1059D01*
X760Y1059D02*
X838Y1059D01*
X260Y1058D02*
X338Y1058D01*
X360Y1058D02*
X438Y1058D01*
X460Y1058D02*
X538Y1058D01*
X560Y1058D02*
X638Y1058D01*
X660Y1058D02*
X738Y1058D01*
X760Y1058D02*
X838Y1058D01*
X260Y1057D02*
X338Y1057D01*
X360Y1057D02*
X438Y1057D01*
X460Y1057D02*
X538Y1057D01*
X560Y1057D02*
X638Y1057D01*
X660Y1057D02*
X738Y1057D01*
X760Y1057D02*
X838Y1057D01*
X260Y1056D02*
X339Y1056D01*
X360Y1056D02*
X439Y1056D01*
X460Y1056D02*
X539Y1056D01*
X560Y1056D02*
X639Y1056D01*
X660Y1056D02*
X739Y1056D01*
X760Y1056D02*
X838Y1056D01*
X260Y1055D02*
X339Y1055D01*
X360Y1055D02*
X439Y1055D01*
X460Y1055D02*
X539Y1055D01*
X560Y1055D02*
X639Y1055D01*
X660Y1055D02*
X739Y1055D01*
X760Y1055D02*
X839Y1055D01*
X260Y1054D02*
X339Y1054D01*
X360Y1054D02*
X439Y1054D01*
X460Y1054D02*
X539Y1054D01*
X560Y1054D02*
X639Y1054D01*
X660Y1054D02*
X739Y1054D01*
X760Y1054D02*
X839Y1054D01*
X260Y1053D02*
X339Y1053D01*
X360Y1053D02*
X439Y1053D01*
X460Y1053D02*
X539Y1053D01*
X560Y1053D02*
X639Y1053D01*
X660Y1053D02*
X739Y1053D01*
X760Y1053D02*
X839Y1053D01*
X260Y1052D02*
X339Y1052D01*
X360Y1052D02*
X439Y1052D01*
X460Y1052D02*
X539Y1052D01*
X560Y1052D02*
X639Y1052D01*
X660Y1052D02*
X739Y1052D01*
X760Y1052D02*
X839Y1052D01*
X260Y1051D02*
X339Y1051D01*
X360Y1051D02*
X439Y1051D01*
X460Y1051D02*
X539Y1051D01*
X560Y1051D02*
X639Y1051D01*
X660Y1051D02*
X739Y1051D01*
X760Y1051D02*
X839Y1051D01*
X260Y1050D02*
X339Y1050D01*
X360Y1050D02*
X439Y1050D01*
X460Y1050D02*
X539Y1050D01*
X560Y1050D02*
X639Y1050D01*
X660Y1050D02*
X739Y1050D01*
X760Y1050D02*
X839Y1050D01*
X260Y1049D02*
X339Y1049D01*
X360Y1049D02*
X439Y1049D01*
X460Y1049D02*
X539Y1049D01*
X560Y1049D02*
X639Y1049D01*
X660Y1049D02*
X738Y1049D01*
X760Y1049D02*
X838Y1049D01*
X260Y1048D02*
X338Y1048D01*
X360Y1048D02*
X438Y1048D01*
X460Y1048D02*
X538Y1048D01*
X560Y1048D02*
X638Y1048D01*
X660Y1048D02*
X738Y1048D01*
X760Y1048D02*
X838Y1048D01*
X260Y1047D02*
X338Y1047D01*
X360Y1047D02*
X438Y1047D01*
X460Y1047D02*
X538Y1047D01*
X560Y1047D02*
X638Y1047D01*
X660Y1047D02*
X738Y1047D01*
X760Y1047D02*
X838Y1047D01*
X260Y1046D02*
X338Y1046D01*
X360Y1046D02*
X438Y1046D01*
X460Y1046D02*
X538Y1046D01*
X560Y1046D02*
X638Y1046D01*
X660Y1046D02*
X738Y1046D01*
X760Y1046D02*
X838Y1046D01*
X261Y1045D02*
X338Y1045D01*
X361Y1045D02*
X438Y1045D01*
X461Y1045D02*
X538Y1045D01*
X561Y1045D02*
X638Y1045D01*
X661Y1045D02*
X738Y1045D01*
X761Y1045D02*
X838Y1045D01*
X261Y1044D02*
X338Y1044D01*
X361Y1044D02*
X438Y1044D01*
X461Y1044D02*
X538Y1044D01*
X561Y1044D02*
X638Y1044D01*
X661Y1044D02*
X738Y1044D01*
X761Y1044D02*
X838Y1044D01*
X261Y1043D02*
X337Y1043D01*
X361Y1043D02*
X437Y1043D01*
X461Y1043D02*
X537Y1043D01*
X561Y1043D02*
X637Y1043D01*
X661Y1043D02*
X737Y1043D01*
X761Y1043D02*
X837Y1043D01*
X261Y1042D02*
X337Y1042D01*
X361Y1042D02*
X437Y1042D01*
X461Y1042D02*
X537Y1042D01*
X561Y1042D02*
X637Y1042D01*
X661Y1042D02*
X737Y1042D01*
X761Y1042D02*
X837Y1042D01*
X262Y1041D02*
X337Y1041D01*
X362Y1041D02*
X437Y1041D01*
X462Y1041D02*
X537Y1041D01*
X562Y1041D02*
X637Y1041D01*
X662Y1041D02*
X737Y1041D01*
X761Y1041D02*
X837Y1041D01*
X262Y1040D02*
X337Y1040D01*
X362Y1040D02*
X437Y1040D01*
X462Y1040D02*
X537Y1040D01*
X562Y1040D02*
X637Y1040D01*
X662Y1040D02*
X737Y1040D01*
X762Y1040D02*
X837Y1040D01*
X262Y1039D02*
X336Y1039D01*
X362Y1039D02*
X436Y1039D01*
X462Y1039D02*
X536Y1039D01*
X562Y1039D02*
X636Y1039D01*
X662Y1039D02*
X736Y1039D01*
X762Y1039D02*
X836Y1039D01*
X263Y1038D02*
X336Y1038D01*
X363Y1038D02*
X436Y1038D01*
X463Y1038D02*
X536Y1038D01*
X563Y1038D02*
X636Y1038D01*
X663Y1038D02*
X736Y1038D01*
X763Y1038D02*
X836Y1038D01*
X263Y1037D02*
X336Y1037D01*
X363Y1037D02*
X436Y1037D01*
X463Y1037D02*
X536Y1037D01*
X563Y1037D02*
X636Y1037D01*
X663Y1037D02*
X736Y1037D01*
X763Y1037D02*
X835Y1037D01*
X263Y1036D02*
X335Y1036D01*
X363Y1036D02*
X435Y1036D01*
X463Y1036D02*
X535Y1036D01*
X563Y1036D02*
X635Y1036D01*
X663Y1036D02*
X735Y1036D01*
X763Y1036D02*
X835Y1036D01*
X264Y1035D02*
X335Y1035D01*
X364Y1035D02*
X435Y1035D01*
X464Y1035D02*
X535Y1035D01*
X564Y1035D02*
X635Y1035D01*
X664Y1035D02*
X735Y1035D01*
X764Y1035D02*
X835Y1035D01*
X264Y1034D02*
X334Y1034D01*
X364Y1034D02*
X434Y1034D01*
X464Y1034D02*
X534Y1034D01*
X564Y1034D02*
X634Y1034D01*
X664Y1034D02*
X734Y1034D01*
X764Y1034D02*
X834Y1034D01*
X265Y1033D02*
X334Y1033D01*
X365Y1033D02*
X434Y1033D01*
X465Y1033D02*
X533Y1033D01*
X565Y1033D02*
X633Y1033D01*
X665Y1033D02*
X733Y1033D01*
X765Y1033D02*
X833Y1033D01*
X266Y1032D02*
X333Y1032D01*
X366Y1032D02*
X433Y1032D01*
X466Y1032D02*
X533Y1032D01*
X566Y1032D02*
X633Y1032D01*
X666Y1032D02*
X733Y1032D01*
X766Y1032D02*
X833Y1032D01*
X266Y1031D02*
X332Y1031D01*
X366Y1031D02*
X432Y1031D01*
X466Y1031D02*
X532Y1031D01*
X566Y1031D02*
X632Y1031D01*
X666Y1031D02*
X732Y1031D01*
X766Y1031D02*
X832Y1031D01*
X267Y1030D02*
X332Y1030D01*
X367Y1030D02*
X432Y1030D01*
X467Y1030D02*
X532Y1030D01*
X567Y1030D02*
X632Y1030D01*
X667Y1030D02*
X732Y1030D01*
X767Y1030D02*
X832Y1030D01*
X268Y1029D02*
X331Y1029D01*
X368Y1029D02*
X431Y1029D01*
X468Y1029D02*
X531Y1029D01*
X568Y1029D02*
X631Y1029D01*
X668Y1029D02*
X731Y1029D01*
X768Y1029D02*
X831Y1029D01*
X268Y1028D02*
X330Y1028D01*
X368Y1028D02*
X430Y1028D01*
X468Y1028D02*
X530Y1028D01*
X568Y1028D02*
X630Y1028D01*
X668Y1028D02*
X730Y1028D01*
X768Y1028D02*
X830Y1028D01*
X269Y1027D02*
X329Y1027D01*
X369Y1027D02*
X429Y1027D01*
X469Y1027D02*
X529Y1027D01*
X569Y1027D02*
X629Y1027D01*
X669Y1027D02*
X729Y1027D01*
X769Y1027D02*
X829Y1027D01*
X270Y1026D02*
X329Y1026D01*
X370Y1026D02*
X428Y1026D01*
X470Y1026D02*
X528Y1026D01*
X570Y1026D02*
X628Y1026D01*
X670Y1026D02*
X728Y1026D01*
X770Y1026D02*
X828Y1026D01*
X271Y1025D02*
X328Y1025D01*
X371Y1025D02*
X428Y1025D01*
X471Y1025D02*
X528Y1025D01*
X571Y1025D02*
X628Y1025D01*
X671Y1025D02*
X728Y1025D01*
X771Y1025D02*
X828Y1025D01*
X272Y1024D02*
X327Y1024D01*
X372Y1024D02*
X427Y1024D01*
X472Y1024D02*
X527Y1024D01*
X572Y1024D02*
X627Y1024D01*
X672Y1024D02*
X727Y1024D01*
X772Y1024D02*
X827Y1024D01*
X273Y1023D02*
X326Y1023D01*
X373Y1023D02*
X425Y1023D01*
X473Y1023D02*
X525Y1023D01*
X573Y1023D02*
X625Y1023D01*
X673Y1023D02*
X725Y1023D01*
X773Y1023D02*
X825Y1023D01*
X274Y1022D02*
X324Y1022D01*
X374Y1022D02*
X424Y1022D01*
X474Y1022D02*
X524Y1022D01*
X574Y1022D02*
X624Y1022D01*
X674Y1022D02*
X724Y1022D01*
X774Y1022D02*
X824Y1022D01*
X275Y1021D02*
X323Y1021D01*
X375Y1021D02*
X423Y1021D01*
X475Y1021D02*
X523Y1021D01*
X575Y1021D02*
X623Y1021D01*
X675Y1021D02*
X723Y1021D01*
X775Y1021D02*
X823Y1021D01*
X277Y1020D02*
X322Y1020D01*
X377Y1020D02*
X422Y1020D01*
X477Y1020D02*
X522Y1020D01*
X577Y1020D02*
X622Y1020D01*
X677Y1020D02*
X722Y1020D01*
X777Y1020D02*
X822Y1020D01*
X278Y1019D02*
X320Y1019D01*
X378Y1019D02*
X420Y1019D01*
X478Y1019D02*
X520Y1019D01*
X578Y1019D02*
X620Y1019D01*
X678Y1019D02*
X720Y1019D01*
X778Y1019D02*
X820Y1019D01*
X280Y1018D02*
X319Y1018D01*
X380Y1018D02*
X419Y1018D01*
X480Y1018D02*
X519Y1018D01*
X580Y1018D02*
X619Y1018D01*
X680Y1018D02*
X719Y1018D01*
X780Y1018D02*
X818Y1018D01*
X282Y1017D02*
X317Y1017D01*
X382Y1017D02*
X417Y1017D01*
X482Y1017D02*
X517Y1017D01*
X582Y1017D02*
X617Y1017D01*
X682Y1017D02*
X717Y1017D01*
X782Y1017D02*
X817Y1017D01*
X284Y1016D02*
X315Y1016D01*
X384Y1016D02*
X415Y1016D01*
X484Y1016D02*
X515Y1016D01*
X584Y1016D02*
X615Y1016D01*
X684Y1016D02*
X715Y1016D01*
X784Y1016D02*
X815Y1016D01*
X286Y1015D02*
X312Y1015D01*
X386Y1015D02*
X412Y1015D01*
X486Y1015D02*
X512Y1015D01*
X586Y1015D02*
X612Y1015D01*
X686Y1015D02*
X712Y1015D01*
X786Y1015D02*
X812Y1015D01*
X290Y1014D02*
X309Y1014D01*
X390Y1014D02*
X409Y1014D01*
X490Y1014D02*
X509Y1014D01*
X590Y1014D02*
X609Y1014D01*
X690Y1014D02*
X709Y1014D01*
X790Y1014D02*
X809Y1014D01*
X295Y1013D02*
X303Y1013D01*
X395Y1013D02*
X403Y1013D01*
X495Y1013D02*
X503Y1013D01*
X595Y1013D02*
X603Y1013D01*
X695Y1013D02*
X703Y1013D01*
X795Y1013D02*
X803Y1013D01*
D02*
G04 End of Mask0*
M02*